<?xml version="1.0" encoding="UTF-8" standalone="no"?>
<!-- Created with Inkscape (http://www.inkscape.org/) -->

<svg
   xmlns:dc="http://purl.org/dc/elements/1.1/"
   xmlns:cc="http://creativecommons.org/ns#"
   xmlns:rdf="http://www.w3.org/1999/02/22-rdf-syntax-ns#"
   xmlns:svg="http://www.w3.org/2000/svg"
   xmlns="http://www.w3.org/2000/svg"
   xmlns:xlink="http://www.w3.org/1999/xlink"
   xmlns:sodipodi="http://sodipodi.sourceforge.net/DTD/sodipodi-0.dtd"
   xmlns:inkscape="http://www.inkscape.org/namespaces/inkscape"
   inkscape:export-ydpi="300"
   inkscape:export-xdpi="300"
   inkscape:export-filename="/home/diana/Ãrea de Trabalho/Brincaderias/Amarelinhas/parte9.png"
   sodipodi:docname="amarelinha.svg"
   inkscape:version="0.91 r13725"
   version="1.1"
   id="svg2"
   viewBox="0 0 1080 1080"
   height="1080"
   width="1080">
  <sodipodi:namedview
     inkscape:guide-bbox="true"
     showguides="false"
     inkscape:window-maximized="1"
     inkscape:window-y="0"
     inkscape:window-x="0"
     inkscape:window-height="715"
     inkscape:window-width="1366"
     units="px"
     showgrid="false"
     inkscape:current-layer="layer1"
     inkscape:document-units="px"
     inkscape:cy="680.89408"
     inkscape:cx="925.0534"
     inkscape:zoom="0.17424649"
     inkscape:pageshadow="2"
     inkscape:pageopacity="0.0"
     borderopacity="1.0"
     bordercolor="#666666"
     pagecolor="#ffffff"
     id="base">
    <sodipodi:guide
       id="guide5380"
       orientation="1,0"
       position="389.85757,765.79165" />
    <sodipodi:guide
       id="guide5382"
       orientation="1,0"
       position="719.38003,672.96842" />
  </sodipodi:namedview>
  <defs
     id="defs4">
    <clipPath
       id="w">
      <path
         d="m-1433.2-115.47c-11.656 0-21.062 5.7521-21.062 12.875v830.03c73.682-9.9072 153.85-15.062 237.16-15.062 343.82-1e-5 484.31 44.117 822.84 235.72 342.86 194.05 775.27 461.42-891.41 464.28-60.105 0.1033-116.48-9.3981-168.59-25.937v150.97c0 7.1229 9.4069 12.844 21.062 12.844h2229.3c11.656 0 21.031-5.7209 21.031-12.844v-1640c0-7.1229-9.3758-12.875-21.031-12.875h-2229.3z"
         id="path4797" />
    </clipPath>
    <clipPath
       id="v">
      <path
         d="m-458.95-138.33c-11.656 0-21.062 5.7521-21.062 12.875v1640c0 7.1229 9.4069 12.844 21.062 12.844h2229.3c11.656 0 21.031-5.7209 21.031-12.844v-1640c0-7.1229-9.3757-12.875-21.031-12.875h-2229.3z"
         id="path4800" />
    </clipPath>
    <clipPath
       id="u">
      <path
         d="m66.775-44.781c-48.512 0-90.277 11.93-108.88 29.029-4.2689-0.29482-8.6095-0.45761-13.02-0.45757-57.892 0-104.88 26.516-104.88 59.185 0 28.592 35.996 52.465 83.786 57.98 14.848 30.919 81.281 54.263 160.92 54.263 90.548 0 164.04-30.168 164.04-67.344l-0.1177-1.0826c29.334-9.232 48.521-24.502 48.521-41.775l-0.4216-4.3861c-5.1006-26.509-53.967-46.621-113.33-46.641-11.48-22.433-59.406-38.772-116.62-38.772z"
         id="path4803" />
    </clipPath>
    <clipPath
       id="t">
      <path
         d="m1101.1-136.21c-48.512 0-90.277 11.93-108.88 29.029-4.2689-0.29482-8.6095-0.45761-13.02-0.45757-57.892 0-104.88 26.516-104.88 59.185 0 28.592 35.996 52.465 83.786 57.98 14.848 30.919 81.281 54.263 160.92 54.263 90.548 0 164.04-30.168 164.04-67.344l-0.1177-1.0826c29.334-9.232 48.521-24.502 48.521-41.775l-0.4216-4.3861c-5.1006-26.509-53.967-46.621-113.33-46.641-11.48-22.433-59.406-38.772-116.62-38.772z"
         id="path4806" />
    </clipPath>
    <clipPath
       id="s">
      <path
         d="m-755.82-243.84h3744.8a35.341 21.597 0 0 1 35.341 21.597v1679.8a35.341 21.597 0 0 1 -35.341 21.597h-3744.8a35.341 21.597 0 0 1 -35.341 -21.597v-1679.8a35.341 21.597 0 0 1 35.341 -21.597"
         id="path4809" />
    </clipPath>
    <clipPath
       id="r">
      <path
         d="m-749.26-231.6h3532.9a33.341 20.375 0 0 1 33.341 20.375v1584.7a33.341 20.375 0 0 1 -33.341 20.375h-3532.9a33.341 20.375 0 0 1 -33.341 -20.375v-1584.7a33.341 20.375 0 0 1 33.341 -20.375"
         id="path4812" />
    </clipPath>
    <filter
       id="q"
       x="-.19116"
       y="-.63012"
       width="1.3823"
       height="2.2602">
      <feGaussianBlur
         stdDeviation="40.50794"
         id="feGaussianBlur4815" />
    </filter>
    <filter
       id="p"
       x="-.24816"
       y="-.26435"
       width="1.4963"
       height="1.5287">
      <feGaussianBlur
         stdDeviation="57.90476"
         id="feGaussianBlur4818" />
    </filter>
    <filter
       id="o"
       x="-.13033"
       y="-.29791"
       width="1.2607"
       height="1.5958">
      <feGaussianBlur
         stdDeviation="24.8259"
         id="feGaussianBlur4821" />
    </filter>
    <filter
       id="n"
       x="-.09573"
       y="-.21881"
       width="1.1914"
       height="1.4376">
      <feGaussianBlur
         stdDeviation="18.23404"
         id="feGaussianBlur4824" />
    </filter>
    <filter
       id="m"
       x="-.09583"
       y="-.21905"
       width="1.1917"
       height="1.4381">
      <feGaussianBlur
         stdDeviation="18.25434"
         id="feGaussianBlur4827" />
    </filter>
    <linearGradient
       id="a">
      <stop
         stop-color="#69d007"
         offset="0"
         id="stop4830" />
      <stop
         stop-color="#4e9a06"
         stop-opacity="0"
         offset="1"
         id="stop4832" />
    </linearGradient>
    <linearGradient
       id="b">
      <stop
         stop-color="#458905"
         offset="0"
         id="stop4835" />
      <stop
         stop-color="#4e9a06"
         stop-opacity="0"
         offset="1"
         id="stop4837" />
    </linearGradient>
    <linearGradient
       id="l"
       x2="0"
       y1="-395.47"
       y2="824.63"
       gradientUnits="userSpaceOnUse">
      <stop
         stop-color="#00acf4"
         offset="0"
         id="stop4840" />
      <stop
         stop-color="#a6e5ff"
         offset="1"
         id="stop4842" />
    </linearGradient>
    <linearGradient
       id="k"
       x1="-242.86"
       x2="-248.57"
       y1="405.22"
       y2="994.64"
       gradientUnits="userSpaceOnUse">
      <stop
         stop-color="#007900"
         offset="0"
         id="stop4845" />
      <stop
         stop-color="#008400"
         stop-opacity="0"
         offset="1"
         id="stop4847" />
    </linearGradient>
    <linearGradient
       id="j"
       x2="0"
       y1="605.09"
       y2="1096.6"
       gradientUnits="userSpaceOnUse">
      <stop
         stop-color="#00a400"
         offset="0"
         id="stop4850" />
      <stop
         stop-color="#00a400"
         stop-opacity="0"
         offset="1"
         id="stop4852" />
    </linearGradient>
    <linearGradient
       id="i"
       x1="404.28"
       x2="428.52"
       y1="543.41"
       y2="1831.1"
       gradientUnits="userSpaceOnUse">
      <stop
         stop-color="#55a800"
         offset="0"
         id="stop4855" />
      <stop
         stop-color="#74e400"
         offset="1"
         id="stop4857" />
    </linearGradient>
    <linearGradient
       id="d"
       x1="-2329.5"
       x2="-2157.6"
       gradientUnits="userSpaceOnUse">
      <stop
         stop-color="#8f5902"
         offset="0"
         id="stop4860" />
      <stop
         stop-color="#724701"
         offset="1"
         id="stop4862" />
    </linearGradient>
    <linearGradient
       id="h"
       x1="-664.68"
       x2="-734.85"
       y1="1025"
       y2="762.32"
       gradientUnits="userSpaceOnUse"
       xlink:href="#b" />
    <linearGradient
       id="g"
       x1="-1133"
       x2="-1071.7"
       y1="223.79"
       y2="463.79"
       gradientUnits="userSpaceOnUse"
       xlink:href="#a" />
    <linearGradient
       id="f"
       x1="-1521.6"
       x2="-1141.5"
       y1="326.65"
       y2="806.8"
       gradientUnits="userSpaceOnUse"
       xlink:href="#a" />
    <linearGradient
       id="e"
       x1="-1381.5"
       x2="-983.91"
       y1="990.44"
       y2="651.02"
       gradientUnits="userSpaceOnUse"
       xlink:href="#b" />
    <radialGradient
       id="c"
       cx="-640"
       cy="-27.638"
       r="284.2"
       gradientTransform="matrix(1.3897,0.70717,-0.55543,1.0915,234.03,455.12)"
       gradientUnits="userSpaceOnUse">
      <stop
         stop-color="#fcaf3e"
         offset="0"
         id="stop4869" />
      <stop
         stop-color="#ffce86"
         offset="1"
         id="stop4871" />
    </radialGradient>
  </defs>
  <metadata
     id="metadata7">
    <rdf:RDF>
      <cc:Work
         rdf:about="">
        <dc:format>image/svg+xml</dc:format>
        <dc:type
           rdf:resource="http://purl.org/dc/dcmitype/StillImage" />
        <dc:title></dc:title>
      </cc:Work>
    </rdf:RDF>
  </metadata>
  <g
     transform="translate(0,27.637808)"
     id="layer1"
     inkscape:groupmode="layer"
     inkscape:label="Camada 1">
    <g
       transform="matrix(0.69519416,1.1096406,-0.99924777,0.77199636,-141.00445,102.65742)"
       id="g5470">
      <g
         id="g5020">
        <path
           inkscape:connector-curvature="0"
           id="path5270"
           d="m 548.96119,-679.85118 c -41.78921,12.09949 -77.51148,37.22356 -81.31653,58.34775 0,0 168.86112,-46.94729 168.86112,-46.94729 0,0 0.48038,1.89145 0.48038,1.89145 -0.0467,-0.56721 -0.12052,-1.12608 -0.22138,-1.67626 -2.49228,-9.79446 -13.67375,-16.19714 -30.58038,-18.11681 -16.1779,-1.83693 -36.64423,0.54559 -57.22321,6.50116 0,0 0,0 0,0"
           style="opacity:1;fill:#0000ff;fill-opacity:1;stroke:#000000;stroke-width:7;stroke-miterlimit:4;stroke-dasharray:none;stroke-opacity:1" />
        <g
           style="font-style:normal;font-weight:normal;font-size:62.5px;line-height:125%;font-family:sans-serif;letter-spacing:0px;word-spacing:0px;fill:#000000;fill-opacity:1;stroke:none;stroke-width:1px;stroke-linecap:butt;stroke-linejoin:miter;stroke-opacity:1"
           id="text5280">
          <path
             d="m 543.46374,-657.74522 c 0,0 -8.41893,2.38137 -8.41893,2.38137 0,0 0.0291,-2.703 0.0291,-2.703 0.008,-0.77906 -0.0786,-1.23587 -0.26065,-1.37262 -0.16867,-0.14663 -0.55518,-0.13397 -1.15949,0.0378 -0.68285,0.19412 -1.11805,0.43379 -1.30598,0.71931 -0.18813,0.28582 -0.28944,0.81794 -0.30382,1.59845 0,0 -0.13459,7.30492 -0.13459,7.30492 -0.0144,0.77985 0.0705,1.26387 0.2549,1.44998 0.18461,0.18636 0.60768,0.1868 1.26924,0.001 0.63482,-0.17823 1.04835,-0.41362 1.24024,-0.70589 0.20519,-0.29575 0.31244,-0.88371 0.32188,-1.76122 0,0 0.0215,-1.99466 0.0215,-1.99466 0,0 8.47377,-2.38993 8.47377,-2.38993 0,0 0.007,0.61487 0.007,0.61487 0.0174,1.64244 -0.21451,2.8841 -0.69686,3.71672 -0.47028,0.83143 -1.53518,1.74476 -3.19554,2.73916 -1.64933,0.99214 -3.68746,1.82814 -6.10961,2.50604 -2.51344,0.70345 -4.57651,1.05625 -6.18829,1.05923 -1.60654,0.003 -2.65634,-0.31814 -3.15175,-0.96127 -0.49307,-0.64708 -0.70782,-1.7591 -0.64619,-3.32892 0,0 0.18092,-4.6082 0.18092,-4.6082 0.044,-1.12044 0.1553,-1.97735 0.33378,-2.57424 0.17823,-0.60162 0.66167,-1.26671 1.44944,-1.99538 0.79914,-0.73084 1.88612,-1.43423 3.26159,-2.11102 1.38782,-0.68631 2.97385,-1.28374 4.76026,-1.79304 2.42861,-0.69239 4.43493,-1.04126 6.02005,-1.0458 1.59039,-0.005 2.64016,0.25883 3.14676,0.79168 0.50847,0.5286 0.771,1.50941 0.78621,2.94884 0,0 0.0156,1.47574 0.0156,1.47574 0,0 0,0 0,0"
             style="font-style:normal;font-variant:normal;font-weight:normal;font-stretch:condensed;font-family:Impact;-inkscape-font-specification:'Impact Condensed';fill:#ffffff"
             id="path5506"
             inkscape:connector-curvature="0" />
          <path
             d="m 564.95428,-661.1544 c 0,0 -10.66628,3.00804 -10.66628,3.00804 0,0 0.10697,2.80575 0.10697,2.80575 0.0226,0.59164 0.12605,0.94889 0.31058,1.0705 0.18472,0.12173 0.53063,0.1115 1.03772,-0.0308 0.63067,-0.17701 1.04402,-0.40665 1.23972,-0.68868 0.2089,-0.29217 0.29848,-0.76361 0.26896,-1.41293 0,0 -0.0778,-1.71142 -0.0778,-1.71142 0,0 7.83492,-2.20745 7.83492,-2.20745 0,0 0.0627,0.95356 0.0627,0.95356 0.0527,0.80146 -0.0167,1.45037 -0.20865,1.94502 -0.17858,0.49181 -0.64531,1.09559 -1.40107,1.81165 -0.75728,0.7175 -1.73731,1.37341 -2.9394,1.96687 -1.18921,0.58321 -2.6955,1.13005 -4.51686,1.63986 -1.76416,0.49381 -3.32408,0.80549 -4.67911,0.93526 -1.3522,0.12951 -2.40924,0.0861 -3.17176,-0.12946 -0.747,-0.22551 -1.26786,-0.55336 -1.56343,-0.98309 -0.29489,-0.43516 -0.45039,-1.13945 -0.46707,-2.1102 0,0 -0.0647,-3.76229 -0.0647,-3.76229 -0.0191,-1.11386 0.2793,-2.07525 0.89392,-2.88716 0.61274,-0.8159 1.62606,-1.59177 3.04042,-2.32889 1.41301,-0.7428 3.04364,-1.37672 4.8944,-1.90269 2.26649,-0.64412 4.14585,-0.97247 5.63904,-0.98437 1.5108,-0.022 2.58417,0.21857 3.21852,0.72329 0.6499,0.49653 1.016,1.35705 1.09682,2.58596 0,0 0.11139,1.69369 0.11139,1.69369 0,0 0,0 0,0 m -8.35835,0.2476 c 0,0 -0.0411,-0.92848 -0.0411,-0.92848 -0.029,-0.65461 -0.12154,-1.05515 -0.27754,-1.20316 -0.15584,-0.14785 -0.46163,-0.1571 -0.91738,-0.0279 -0.56282,0.15955 -0.90792,0.34048 -1.03554,0.54294 -0.12795,0.19629 -0.17842,0.64971 -0.15126,1.3621 0,0 0.0354,0.92939 0.0354,0.92939 0,0 2.38743,-0.67489 2.38743,-0.67489 0,0 0,0 0,0 m 5.27863,-9.41783 c 0,0 -6.43188,4.3789 -6.43188,4.3789 0,0 -4.04661,1.15081 -4.04661,1.15081 0,0 3.40599,-3.51265 3.40599,-3.51265 0,0 7.0725,-2.01706 7.0725,-2.01706 0,0 0,0 0,0"
             style="font-style:normal;font-variant:normal;font-weight:normal;font-stretch:condensed;font-family:Impact;-inkscape-font-specification:'Impact Condensed';fill:#ffffff"
             id="path5508"
             inkscape:connector-curvature="0" />
          <path
             d="m 585.95455,-673.77184 c 0,0 1.56975,12.69932 1.56975,12.69932 0,0 -8.64401,2.4202 -8.64401,2.4202 0,0 0.0366,-1.12991 0.0366,-1.12991 -0.54157,0.60566 -1.2345,1.14247 -2.07838,1.6098 -0.83105,0.45706 -1.80515,0.842 -2.92135,1.15443 -1.26872,0.35513 -2.32927,0.54326 -3.18137,0.56459 -0.85074,0.0213 -1.49025,-0.0873 -1.91891,-0.3253 -0.41395,-0.24144 -0.6828,-0.53631 -0.80699,-0.88446 -0.12443,-0.35403 -0.2272,-1.09081 -0.30813,-2.20609 0,0 -0.61979,-8.5405 -0.61979,-8.5405 0,0 8.16198,-2.31899 8.16198,-2.31899 0,0 0.81138,8.58897 0.81138,8.58897 0.0952,1.00766 0.21434,1.5907 0.35719,1.74532 0.15688,0.15089 0.52711,0.14452 1.11071,-0.0193 0.62552,-0.17556 0.98414,-0.37718 1.0756,-0.60463 0.10528,-0.23114 0.10411,-0.87788 -0.003,-1.93606 0,0 -0.85854,-8.48274 -0.85854,-8.48274 0,0 8.21722,-2.33468 8.21722,-2.33468 0,0 0,0 0,0"
             style="font-style:normal;font-variant:normal;font-weight:normal;font-stretch:condensed;font-family:Impact;-inkscape-font-specification:'Impact Condensed';fill:#ffffff"
             id="path5510"
             inkscape:connector-curvature="0" />
        </g>
        <path
           style="opacity:1;fill:#ff0000;fill-opacity:1;stroke:#000000;stroke-width:7;stroke-miterlimit:4;stroke-dasharray:none;stroke-opacity:1"
           d="m 428.58086,-570.36217 c 0,0 119.33586,-31.58657 119.33586,-31.58657 0,0 0.95325,49.72321 0.95325,49.72321 0,0 -132.0296,32.84545 -132.0296,32.84545 0,0 11.74049,-50.98209 11.74049,-50.98209"
           id="rect5284"
           inkscape:connector-curvature="0" />
        <path
           style="opacity:1;fill:#ff3a67;fill-opacity:1;stroke:#000000;stroke-width:7;stroke-miterlimit:4;stroke-dasharray:none;stroke-opacity:1"
           d="m 547.27741,-601.77952 c 0,0 129.10044,-34.17112 129.10044,-34.17112 0,0 15.86489,48.05779 15.86489,48.05779 0,0 -144.08304,35.84403 -144.08304,35.84403 0,0 -0.88229,-49.7307 -0.88229,-49.7307"
           id="rect5284-2"
           inkscape:connector-curvature="0" />
        <path
           style="opacity:1;fill:#d45500;fill-opacity:1;stroke:#000000;stroke-width:7;stroke-miterlimit:4;stroke-dasharray:none;stroke-opacity:1"
           d="m 486.73401,-537.81275 c 0,0 138.06998,-34.39501 138.06998,-34.39501 0,0 10.90563,61.0929 10.90563,61.0929 0,0 -155.35834,35.63014 -155.35834,35.63014 0,0 6.38273,-62.32803 6.38273,-62.32803"
           id="rect5284-8"
           inkscape:connector-curvature="0" />
        <path
           style="opacity:1;fill:#441650;fill-opacity:1;stroke:#000000;stroke-width:7;stroke-miterlimit:4;stroke-dasharray:none;stroke-opacity:1"
           d="m 402.91622,-459.55715 c 0,0 146.91021,-33.78248 146.91021,-33.78248 0,0 1.48575,78.76998 1.48575,78.76998 0,0 -166.63396,34.12374 -166.63396,34.12374 0,0 18.238,-79.11124 18.238,-79.11124"
           id="rect5284-88"
           inkscape:connector-curvature="0" />
        <path
           style="opacity:1;fill:#ffaaaa;fill-opacity:1;stroke:#000000;stroke-width:7;stroke-miterlimit:4;stroke-dasharray:none;stroke-opacity:1"
           d="m 549.03221,-493.157 c 0,0 161.98408,-37.24877 161.98408,-37.24877 0,0 25.67711,77.87328 25.67711,77.87328 0,0 -186.28798,38.14853 -186.28798,38.14853 0,0 -1.37321,-78.77304 -1.37321,-78.77304"
           id="rect5284-2-6"
           inkscape:connector-curvature="0" />
        <path
           style="opacity:1;fill:#008000;fill-opacity:1;stroke:#000000;stroke-width:7;stroke-miterlimit:4;stroke-dasharray:none;stroke-opacity:1"
           d="m 472.08371,-394.75086 c 0,0 177.93084,-36.22841 177.93084,-36.22841 0,0 18.99974,106.43569 18.99974,106.43569 0,0 -207.73191,35.26896 -207.73191,35.26896 0,0 10.80133,-105.47624 10.80133,-105.47624"
           id="rect5284-8-8"
           inkscape:connector-curvature="0" />
        <path
           style="opacity:1;fill:#2aff80;fill-opacity:1;stroke:#000000;stroke-width:7;stroke-miterlimit:4;stroke-dasharray:none;stroke-opacity:1"
           d="m 360.45068,-275.35376 c 0,0 192.8658,-32.95394 192.8658,-32.95394 0,0 2.76434,146.55683 2.76434,146.55683 0,0 -228.3558,28.35167 -228.3558,28.35167 0,0 32.72566,-141.95456 32.72566,-141.95456"
           id="rect5284-88-3"
           inkscape:connector-curvature="0" />
        <path
           style="opacity:1;fill:#ff0000;fill-opacity:1;stroke:#000000;stroke-width:7;stroke-miterlimit:4;stroke-dasharray:none;stroke-opacity:1"
           d="m 552.25774,-308.1268 c 0,0 219.67421,-37.53455 219.67421,-37.53455 0,0 49.76686,150.9325 49.76686,150.9325 0,0 -266.88664,33.13549 -266.88664,33.13549 0,0 -2.55443,-146.53344 -2.55443,-146.53344"
           id="rect5284-2-6-8"
           inkscape:connector-curvature="0" />
        <path
           style="opacity:1;fill:#00aad4;fill-opacity:1;stroke:#000000;stroke-width:7;stroke-miterlimit:4;stroke-dasharray:none;stroke-opacity:1"
           d="m 446.89813,-148.81078 c 0,0 247.98111,-30.8385 247.98111,-30.8385 0,0 40.32344,225.890142 40.32344,225.890142 0,0 -310.02353,17.036665 -310.02353,17.036665 0,0 21.71898,-212.088307 21.71898,-212.088307"
           id="rect5284-8-3"
           inkscape:connector-curvature="0" />
        <path
           style="opacity:1;fill:#00ff00;fill-opacity:1;stroke:#000000;stroke-width:7;stroke-miterlimit:4;stroke-dasharray:none;stroke-opacity:1"
           d="m 496.04528,-628.73857 c 0,0 113.06058,-31.40925 113.06058,-31.40925 0,0 7.10229,39.78669 7.10229,39.78669 0,0 -124.39384,32.93841 -124.39384,32.93841 0,0 4.23097,-41.31585 4.23097,-41.31585"
           id="rect5284-8-3-4"
           inkscape:connector-curvature="0" />
        <g
           style="font-style:normal;font-weight:normal;font-size:62.5px;line-height:125%;font-family:sans-serif;letter-spacing:0px;word-spacing:0px;fill:#000000;fill-opacity:1;stroke:none;stroke-width:1px;stroke-linecap:butt;stroke-linejoin:miter;stroke-opacity:1"
           id="text5384">
          <path
             d="m 548.92223,-633.80956 c 0,0 0.42379,18.39045 0.42379,18.39045 0,0 -9.00881,2.42206 -9.00881,2.42206 0,0 -0.0238,-10.08418 -0.0238,-10.08418 -0.003,-1.41786 -0.0702,-2.2479 -0.20034,-2.49687 -0.13,-0.24861 -0.4897,-0.36321 -1.07878,-0.34409 -0.5741,0.008 -1.86489,0.28586 -3.87091,0.83383 0,0 -0.85894,0.23464 -0.85894,0.23464 0,0 0.0247,-2.1048 0.0247,-2.1048 4.1791,-1.60844 7.3506,-3.42901 9.50421,-5.45289 0,0 5.08885,-1.39815 5.08885,-1.39815 0,0 0,0 0,0"
             style="font-style:normal;font-variant:normal;font-weight:normal;font-stretch:condensed;font-family:Impact;-inkscape-font-specification:'Impact Condensed';fill:#ffffff"
             id="path5523"
             inkscape:connector-curvature="0" />
          <path
             d="m 573.3661,-634.39153 c 0,0 0.49734,6.08553 0.49734,6.08553 0.11501,1.40725 0.0491,2.47854 -0.1988,3.20841 -0.24862,0.73196 -0.82537,1.51052 -1.73111,2.33537 -0.9076,0.82655 -2.02487,1.54666 -3.3507,2.1592 -1.32626,0.61274 -2.81903,1.14209 -4.47672,1.58757 -2.18246,0.58651 -4.00012,0.94308 -5.45293,1.07013 -1.45007,0.1189 -2.61109,0.0136 -3.48335,-0.31506 -0.86955,-0.3276 -1.49199,-0.74766 -1.8685,-1.25977 -0.37561,-0.51832 -0.58363,-1.43899 -0.62473,-2.75712 0,0 -0.20001,-6.41542 -0.20001,-6.41542 -0.0516,-1.6563 0.1839,-2.96318 0.70493,-3.92779 0.53357,-0.96515 1.60944,-1.91479 3.22746,-2.85058 1.63028,-0.93851 3.61513,-1.72903 5.95872,-2.37318 1.91484,-0.5263 3.64104,-0.8285 5.17987,-0.90627 1.54232,-0.0852 2.70998,0.0108 3.50168,0.28874 0.79394,0.27873 1.3473,0.68802 1.65912,1.22853 0.32742,0.5382 0.54674,1.48366 0.65773,2.84171 0,0 0,0 0,0 m -8.98002,0.91544 c -0.057,-0.94904 -0.1868,-1.51325 -0.38944,-1.69568 -0.18832,-0.19349 -0.61573,-0.19881 -1.2822,-0.0162 -0.65171,0.17856 -1.07917,0.42543 -1.28276,0.74093 -0.1897,0.30456 -0.26061,0.91577 -0.21241,1.83643 0,0 0.46775,8.93379 0.46775,8.93379 0.057,1.08846 0.18846,1.72113 0.39438,1.89402 0.22111,0.16905 0.66805,0.16296 1.34085,-0.0185 0.67308,-0.18151 1.10671,-0.43271 1.30051,-0.75328 0.19358,-0.32021 0.26264,-0.94063 0.20752,-1.85855 0,0 -0.5442,-9.06297 -0.5442,-9.06297 0,0 0,0 0,0"
             style="font-style:normal;font-variant:normal;font-weight:normal;font-stretch:condensed;font-family:Impact;-inkscape-font-specification:'Impact Condensed';fill:#ffffff"
             id="path5525"
             inkscape:connector-curvature="0" />
        </g>
        <g
           style="font-style:normal;font-weight:normal;font-size:62.5px;line-height:125%;font-family:sans-serif;letter-spacing:0px;word-spacing:0px;fill:#000000;fill-opacity:1;stroke:none;stroke-width:1px;stroke-linecap:butt;stroke-linejoin:miter;stroke-opacity:1"
           id="text5384-0">
          <path
             d="m 488.20984,-564.79355 c 1.34306,-0.0187 2.3542,0.21303 3.03277,0.69639 0.6817,0.47554 0.90078,1.98525 0.65365,4.54798 -0.18171,1.88425 -0.61705,3.35922 -1.30667,4.41663 -0.69188,1.06086 -1.94115,2.10836 -3.74779,3.14086 -1.80778,1.0239 -4.17979,1.90818 -7.11021,2.65084 -2.84586,0.72124 -5.05888,1.00948 -6.63906,0.86609 -1.57496,-0.14293 -2.65771,-0.58445 -3.25031,-1.32262 -0.57457,-0.7391 -0.71151,-2.1707 -0.41449,-4.2836 0.19796,-1.40824 0.53812,-2.66669 1.01991,-3.77806 0.49523,-1.11097 1.69624,-2.20518 3.60263,-3.28483 -1.10356,-0.0408 -1.89508,-0.35063 -2.37511,-0.92808 -0.46191,-0.58874 -0.61389,-1.44253 -0.45765,-2.55903 0.2682,-1.9165 1.34131,-3.56904 3.21702,-4.96601 1.87171,-1.40212 4.54348,-2.55516 8.02514,-3.46361 4.0341,-1.0526 6.77564,-1.28392 8.2223,-0.68957 1.4542,0.59745 2.09334,1.83265 1.91066,3.71429 -0.11692,1.20429 -0.46414,2.14462 -1.04202,2.81741 -0.56351,0.67007 -1.67689,1.47842 -3.34077,2.42492 0,0 0,0 0,0 m -4.70037,-3.47651 c 0.0867,-0.75035 0.0294,-1.21356 -0.17142,-1.39121 -0.18436,-0.19051 -0.58811,-0.20469 -1.2112,-0.0428 -0.60766,0.1579 -1.03363,0.39644 -1.27829,0.71588 -0.24378,0.31063 -0.40918,0.8224 -0.49623,1.53668 0,0 -0.20694,1.69799 -0.20694,1.69799 -0.0823,0.67513 -0.0167,1.11159 0.197,1.30817 0.214,0.19681 0.6128,0.21999 1.19637,0.0693 0.61454,-0.15866 1.04412,-0.39129 1.28841,-0.69765 0.24514,-0.31535 0.41364,-0.87114 0.50543,-1.66562 0,0 0.17687,-1.5308 0.17687,-1.5308 0,0 0,0 0,0 m -0.90313,9.38483 c 0.10185,-0.88434 0.0216,-1.42955 -0.2402,-1.63781 -0.26036,-0.21743 -0.70782,-0.24445 -1.34245,-0.0813 -0.6189,0.15905 -1.08459,0.41607 -1.39748,0.77136 -0.29656,0.34219 -0.50004,0.96414 -0.61053,1.86809 0,0 -0.36931,3.02121 -0.36931,3.02121 -0.12411,1.01531 -0.0553,1.63227 0.20712,1.84798 0.27847,0.21201 0.74763,0.23416 1.40742,0.0662 0.67579,-0.17205 1.14871,-0.43415 1.41833,-0.78598 0.27046,-0.36118 0.46531,-1.06015 0.58438,-2.09396 0,0 0.34272,-2.97572 0.34272,-2.97572 0,0 0,0 0,0"
             style="font-style:normal;font-variant:normal;font-weight:normal;font-stretch:condensed;font-family:Impact;-inkscape-font-specification:'Impact Condensed';fill:#ffffff"
             id="path5528"
             inkscape:connector-curvature="0" />
        </g>
        <g
           style="font-style:normal;font-weight:normal;font-size:62.5px;line-height:125%;font-family:sans-serif;letter-spacing:0px;word-spacing:0px;fill:#000000;fill-opacity:1;stroke:none;stroke-width:1px;stroke-linecap:butt;stroke-linejoin:miter;stroke-opacity:1"
           id="text5384-2">
          <path
             d="m 462.26292,-208.44 c 0,0 -1.08233,11.83916 -1.08233,11.83916 0,0 -35.71494,4.97976 -35.71494,4.97976 0,0 1.30767,-9.87365 1.30767,-9.87365 12.52447,-19.32382 19.80044,-30.89796 22.14183,-35.20233 2.34964,-4.29743 3.6358,-7.53807 3.87258,-9.74046 0.18084,-1.68207 0.025,-2.88084 -0.46607,-3.60026 -0.46202,-0.7469 -1.26969,-1.02861 -2.4232,-0.8466 -1.15263,0.18188 -2.06836,0.77216 -2.74882,1.77236 -0.65668,0.99815 -1.14309,2.8577 -1.45992,5.59108 0,0 -0.69138,5.96482 -0.69138,5.96482 0,0 -13.72843,2.10951 -13.72843,2.10951 0,0 0.30344,-2.29118 0.30344,-2.29118 0.46301,-3.49592 0.9989,-6.25263 1.60853,-8.28545 0.6101,-2.04852 1.72003,-4.13018 3.32731,-6.24611 1.6011,-2.10781 3.54596,-3.81519 5.83746,-5.12724 2.28923,-1.31073 4.95278,-2.20999 7.99692,-2.69948 5.98226,-0.96195 10.36829,-0.20854 13.16032,2.28081 2.84647,2.48413 4.07206,6.05197 3.65264,10.72626 -0.32186,3.58711 -1.56802,7.55401 -3.75072,11.90533 -2.17614,4.38611 -8.37893,14.05113 -18.80485,29.27388 0,0 17.66196,-2.53021 17.66196,-2.53021 0,0 0,0 0,0"
             style="font-style:normal;font-variant:normal;font-weight:normal;font-stretch:condensed;font-family:Impact;-inkscape-font-specification:'Impact Condensed';fill:#ffffff"
             id="path5531"
             inkscape:connector-curvature="0" />
        </g>
        <g
           style="font-style:normal;font-weight:normal;font-size:62.5px;line-height:125%;font-family:sans-serif;letter-spacing:0px;word-spacing:0px;fill:#000000;fill-opacity:1;stroke:none;stroke-width:1px;stroke-linecap:butt;stroke-linejoin:miter;stroke-opacity:1"
           id="text5384-7">
          <path
             d="m 638.56438,-482.87931 c 0,0 -12.81063,2.82344 -12.81063,2.82344 -0.24369,-1.60994 -0.42756,-2.6099 -0.55249,-3.00624 -0.1059,-0.41452 -0.4101,-0.71159 -0.91223,-0.8915 -0.4806,-0.18432 -1.10664,-0.19076 -1.8783,-0.0196 -0.64623,0.14336 -1.15832,0.39492 -1.53665,0.75489 -0.3786,0.36023 -0.56912,0.75907 -0.57137,1.19681 -0.002,0.43837 0.0884,1.30333 0.27257,2.59882 0,0 0.79256,5.57571 0.79256,5.57571 0.52142,-1.0877 1.38232,-2.00095 2.58307,-2.74163 1.19761,-0.75448 2.72631,-1.33584 4.5885,-1.74491 2.35197,-0.51666 4.50213,-0.54131 6.45395,-0.0719 1.95993,0.47134 3.29424,1.2644 3.99923,2.38152 0.70822,1.12223 1.24754,2.73866 1.61754,4.85701 0,0 0.505,2.89128 0.505,2.89128 0.44784,2.56405 0.64092,4.51726 0.57608,5.84682 -0.0651,1.33507 -0.6324,2.68654 -1.70404,4.05327 -1.05527,1.35048 -2.62978,2.56387 -4.7223,3.6378 -2.07184,1.06999 -4.55686,1.91179 -7.45008,2.52402 -3.59273,0.76026 -6.57747,1.02868 -8.9535,0.80716 -2.3671,-0.22067 -4.25131,-0.85283 -5.65388,-1.89306 -1.37561,-1.05496 -2.25486,-2.27209 -2.64163,-3.65035 -0.36338,-1.37611 -0.78635,-4.08759 -1.2653,-8.09818 0,0 -0.59136,-4.95184 -0.59136,-4.95184 -0.5007,-4.19273 -0.7479,-6.97754 -0.747,-8.39463 0.0199,-1.42914 0.58603,-2.89341 1.69555,-4.39392 1.10565,-1.49526 2.69952,-2.78081 4.78333,-3.85997 2.10091,-1.09676 4.57287,-1.9627 7.42094,-2.59931 3.51542,-0.78579 6.46617,-1.05213 8.85383,-0.79694 2.39753,0.25624 4.20964,0.97145 5.43401,2.14975 1.23123,1.18489 2.03711,2.85434 2.41461,5.01567 0,0 -10e-6,0 -10e-6,0 m -11.14075,13.85532 c -0.19282,-1.27387 -0.52784,-2.10037 -1.005,-2.48314 -0.47627,-0.38206 -1.17264,-0.4729 -2.08938,-0.27312 -0.89492,0.19503 -1.52236,0.56653 -1.88305,1.11514 -0.34193,0.52994 -0.41967,1.45224 -0.23223,2.77087 0,0 0.93818,6.60024 0.93818,6.60024 0.23164,1.62956 0.57967,2.65863 1.04382,3.08106 0.48686,0.41861 1.19982,0.52807 2.13857,0.32767 0.56788,-0.12122 1.12921,-0.43946 1.68347,-0.95433 0.55145,-0.52974 0.69723,-1.65152 0.43888,-3.35829 0,0 -1.03326,-6.8261 -1.03326,-6.8261 0,0 0,0 0,0"
             style="font-style:normal;font-variant:normal;font-weight:normal;font-stretch:condensed;font-family:Impact;-inkscape-font-specification:'Impact Condensed';fill:#ffffff"
             id="path5534"
             inkscape:connector-curvature="0" />
        </g>
        <g
           style="font-style:normal;font-weight:normal;font-size:62.5px;line-height:125%;font-family:sans-serif;letter-spacing:0px;word-spacing:0px;fill:#000000;fill-opacity:1;stroke:none;stroke-width:1px;stroke-linecap:butt;stroke-linejoin:miter;stroke-opacity:1"
           id="text5384-6">
          <path
             d="m 485.51347,-459.42507 c 0,0 -0.49568,5.45287 -0.49568,5.45287 0,0 -14.27976,3.17013 -14.27976,3.17013 0,0 -0.67431,5.90432 -0.67431,5.90432 1.97412,-1.99542 4.36885,-3.30166 7.19417,-3.92573 3.19428,-0.70557 5.54542,-0.56449 7.0547,0.42847 1.53832,0.97977 2.14173,3.40962 1.80054,7.323 0,0 -0.45111,5.17411 -0.45111,5.17411 -0.22678,2.60113 -0.56347,4.56445 -1.0099,5.87715 -0.42685,1.29801 -1.22663,2.59674 -2.40055,3.89519 -1.17567,1.28642 -2.76131,2.42561 -4.75542,3.41541 -1.97369,0.97047 -4.34795,1.75007 -7.11821,2.33761 -3.1031,0.65814 -5.78294,0.81401 -8.0371,0.46971 -2.24273,-0.35844 -3.74503,-1.27124 -4.5106,-2.73301 -0.76104,-1.4531 -0.9123,-3.90178 -0.4609,-7.32414 0,0 0.26136,-1.9816 0.26136,-1.9816 0,0 11.72665,-2.542 11.72665,-2.542 0,0 -0.25802,2.27482 -0.25802,2.27482 -0.26941,2.37519 -0.35408,4.04995 -0.2522,5.01302 0.10222,0.96634 0.79407,1.31368 2.07609,1.0394 0.59206,-0.12666 1.08163,-0.37423 1.46832,-0.74247 0.40616,-0.37221 0.63694,-0.72913 0.6925,-1.07068 0.0752,-0.34541 0.26941,-1.81238 0.58077,-4.3852 0,0 0.76281,-7.19143 0.76281,-7.19143 0.14218,-1.34039 0.0555,-2.21018 -0.25926,-2.6132 -0.31415,-0.4023 -0.89418,-0.51043 -1.74018,-0.32502 -0.53811,0.11794 -1.00343,0.34099 -1.39626,0.66933 -0.39306,0.32853 -0.66388,0.65186 -0.81238,0.97006 -0.12774,0.2996 -0.25078,0.97089 -0.36936,2.01636 0,0 -11.53134,2.51562 -11.53134,2.51562 0,0 2.78563,-17.65088 2.78563,-17.65088 0,0 24.409,-5.46122 24.409,-5.46122 0,0 0,0 0,0"
             style="font-style:normal;font-variant:normal;font-weight:normal;font-stretch:condensed;font-family:Impact;-inkscape-font-specification:'Impact Condensed';fill:#ffffff"
             id="path5537"
             inkscape:connector-curvature="0" />
        </g>
        <g
           style="font-style:normal;font-weight:normal;font-size:62.5px;line-height:125%;font-family:sans-serif;letter-spacing:0px;word-spacing:0px;fill:#000000;fill-opacity:1;stroke:none;stroke-width:1px;stroke-linecap:butt;stroke-linejoin:miter;stroke-opacity:1"
           id="text5384-63">
          <path
             d="m 561.5073,-542.92885 c 0,0 0.25374,5.80846 0.25374,5.80846 0,0 -6.21105,23.66185 -6.21105,23.66185 0,0 -11.10837,2.62077 -11.10837,2.62077 0,0 7.36397,-24.90121 7.36397,-24.90121 0,0 -10.53254,2.56253 -10.53254,2.56253 0,0 -0.0182,-4.79403 -0.0182,-4.79403 0,0 20.25246,-4.95837 20.25246,-4.95837 0,0 0,0 0,0"
             style="font-style:normal;font-variant:normal;font-weight:normal;font-stretch:condensed;font-family:Impact;-inkscape-font-specification:'Impact Condensed';fill:#ffffff"
             id="path5540"
             inkscape:connector-curvature="0" />
        </g>
        <g
           style="font-style:normal;font-weight:normal;font-size:62.5px;line-height:125%;font-family:sans-serif;letter-spacing:0px;word-spacing:0px;fill:#000000;fill-opacity:1;stroke:none;stroke-width:1px;stroke-linecap:butt;stroke-linejoin:miter;stroke-opacity:1"
           id="text5384-9">
          <path
             d="m 599.31781,-590.13327 c 0,0 10.16474,-2.60949 10.16474,-2.60949 0.15971,1.04329 0.28649,1.69939 0.37988,1.96498 0.092,0.25662 0.33007,0.43268 0.71434,0.52799 0.40158,0.0911 0.91614,0.0564 1.54356,-0.10403 0.52587,-0.13449 0.94438,-0.33372 1.25528,-0.59753 0.31073,-0.26366 0.46038,-0.53923 0.44908,-0.82657 0.006,-0.29133 -0.06,-0.85808 -0.19639,-1.6982 0,0 -0.57463,-3.53867 -0.57463,-3.53867 -0.40715,0.72009 -1.09022,1.36069 -2.04903,1.92086 -0.96088,0.55141 -2.18791,1.0192 -3.67957,1.40284 -1.85844,0.47797 -3.53611,0.62469 -5.03094,0.44101 -1.48995,-0.18307 -2.47477,-0.60739 -2.95682,-1.27162 -0.48033,-0.66186 -0.80369,-1.63596 -0.97066,-2.91861 0,0 -0.22443,-1.72415 -0.22443,-1.72415 -0.19577,-1.50398 -0.23472,-2.64422 -0.11809,-3.42639 0.13252,-0.78399 0.61273,-1.59806 1.4396,-2.44265 0.82392,-0.85142 2.01328,-1.65426 3.56885,-2.40963 1.55478,-0.75499 3.39339,-1.41046 5.51853,-1.96725 2.63196,-0.68958 4.82837,-1.06401 6.58969,-1.12254 1.76627,-0.0587 3.18334,0.1551 4.25061,0.64299 1.06985,0.48114 1.75513,1.10648 2.05357,1.87678 0.29956,0.7732 0.66778,2.33379 1.10729,4.69825 0,0 0.56228,3.02495 0.56228,3.02495 0.48755,2.62292 0.74918,4.41366 0.78071,5.352 0.0299,0.93271 -0.41012,1.94047 -1.32222,3.02292 -0.8976,1.08119 -2.21061,2.0593 -3.93798,2.93239 -1.73012,0.86424 -3.77707,1.59739 -6.13742,2.19838 -2.91997,0.74348 -5.34461,1.09058 -7.273,1.04245 -1.90491,-0.0523 -3.32457,-0.44568 -4.2606,-1.17783 -0.91497,-0.73313 -1.46296,-1.80566 -1.64623,-3.21363 0,0 0,0 0,0 m 9.11255,-9.48274 c 0.13984,0.91348 0.44263,1.42367 0.90837,1.52789 0.48296,0.10005 0.95791,0.0899 1.42449,-0.0306 0.70012,-0.18084 1.18705,-0.44732 1.46035,-0.79913 0.28823,-0.36475 0.36743,-0.94604 0.23817,-1.74205 0,0 -0.63169,-3.89003 -0.63169,-3.89003 -0.15214,-0.93691 -0.40717,-1.50709 -0.76518,-1.71324 -0.3411,-0.21012 -0.86337,-0.22324 -1.56695,-0.0396 -0.42528,0.11098 -0.84918,0.33923 -1.27203,0.68496 -0.4245,0.33726 -0.56201,0.99491 -0.41182,1.97599 0,0 0.61629,4.02589 0.61629,4.02589 0,0 0,0 0,0"
             style="font-style:normal;font-variant:normal;font-weight:normal;font-stretch:condensed;font-family:Impact;-inkscape-font-specification:'Impact Condensed';fill:#ffffff"
             id="path5543"
             inkscape:connector-curvature="0" />
        </g>
        <g
           style="font-style:normal;font-weight:normal;font-size:62.5px;line-height:125%;font-family:sans-serif;letter-spacing:0px;word-spacing:0px;fill:#000000;fill-opacity:1;stroke:none;stroke-width:1px;stroke-linecap:butt;stroke-linejoin:miter;stroke-opacity:1"
           id="text5384-91">
          <path
             d="m 574.26564,-391.03698 c 0,0 1.61487,30.49199 1.61487,30.49199 0,0 4.16572,-0.7754 4.16572,-0.7754 0,0 0.49757,8.42509 0.49757,8.42509 0,0 -4.21719,0.77366 -4.21719,0.77366 0,0 0.47222,8.91641 0.47222,8.91641 0,0 -14.91588,2.69399 -14.91588,2.69399 0,0 -0.28304,-8.90873 -0.28304,-8.90873 0,0 -17.32007,3.17743 -17.32007,3.17743 0,0 -0.0593,-8.40929 -0.0593,-8.40929 0,0 11.66224,-32.78458 11.66224,-32.78458 0,0 18.38291,-3.60057 18.38291,-3.60057 0,0 0,0 0,0 m -12.93314,33.19994 c 0,0 -0.6404,-20.15661 -0.6404,-20.15661 0,0 -5.72705,21.34184 -5.72705,21.34184 0,0 6.36745,-1.18523 6.36745,-1.18523 0,0 0,0 0,0"
             style="font-style:normal;font-variant:normal;font-weight:normal;font-stretch:condensed;font-family:Impact;-inkscape-font-specification:'Impact Condensed';fill:#ffffff"
             id="path5546"
             inkscape:connector-curvature="0" />
        </g>
        <g
           style="font-style:normal;font-weight:normal;font-size:62.5px;line-height:125%;font-family:sans-serif;letter-spacing:0px;word-spacing:0px;fill:#000000;fill-opacity:1;stroke:none;stroke-width:1px;stroke-linecap:butt;stroke-linejoin:miter;stroke-opacity:1"
           id="text5384-60">
          <path
             d="m 666.65585,-249.0198 c 2.90796,0.47171 5.21133,1.61754 6.90908,3.44411 1.70292,1.80859 3.19516,6.48051 4.48723,14.11398 0.97494,5.75985 1.05308,10.38746 0.21976,13.83998 -0.84426,3.44596 -2.83182,6.27584 -5.96305,8.47497 -3.14247,2.17242 -7.38186,3.61599 -12.70044,4.32575 -6.02136,0.80355 -10.87021,0.43572 -14.54442,-1.09342 -3.62213,-1.55378 -6.13214,-3.68042 -7.54067,-6.3728 -1.37113,-2.70693 -2.45173,-7.51538 -3.2396,-14.35497 0,0 -0.64505,-5.59978 -0.64505,-5.59978 0,0 18.1878,-2.60132 18.1878,-2.60132 0,0 1.60151,11.61865 1.60151,11.61865 0.43396,3.14836 0.89757,5.14437 1.38919,5.9715 0.51944,0.79446 1.44473,1.1012 2.77579,0.91874 1.45612,-0.1996 2.33809,-0.87865 2.64439,-2.03501 0.30559,-1.15364 0.12387,-4.01777 -0.53912,-8.55681 0,0 -0.72439,-4.95933 -0.72439,-4.95933 -0.39726,-2.71977 -1.00392,-4.65148 -1.81982,-5.80565 -0.81308,-1.15021 -1.86262,-1.82178 -3.1491,-2.01744 -1.28832,-0.22403 -3.70494,-0.10869 -7.24537,0.34494 0,0 -1.32065,-9.97735 -1.32065,-9.97735 4.25719,-0.62915 6.87226,-1.1727 7.8367,-1.62934 0.96429,-0.45657 1.59418,-1.23406 1.88927,-2.33063 0.2944,-1.09405 0.28167,-2.73332 -0.0364,-4.91074 0,0 -0.53949,-3.69344 -0.53949,-3.69344 -0.3371,-2.30789 -0.82047,-3.78103 -1.45054,-4.42846 -0.59964,-0.65048 -1.43641,-0.89296 -2.51075,-0.72857 -1.21866,0.18647 -2.00536,0.70434 -2.36126,1.5548 -0.33119,0.82052 -0.32377,2.48796 0.0243,5.01339 0,0 0.75431,5.4724 0.75431,5.4724 0,0 -17.72547,2.64774 -17.72547,2.64774 0,0 -0.65252,-5.66462 -0.65252,-5.66462 -0.72042,-6.25402 0.31057,-10.65069 3.07698,-13.25664 2.7532,-2.62278 7.41489,-4.44413 14.01276,-5.47437 8.29249,-1.29486 14.17568,-0.69406 17.64234,1.82531 3.49996,2.54357 5.71818,6.53014 6.63895,11.99804 0.63034,3.74322 0.5371,6.55889 -0.28644,8.42532 -0.83113,1.8451 -2.52934,3.6796 -5.09588,5.50107 0,0 0,0 0,0"
             style="font-style:normal;font-variant:normal;font-weight:normal;font-stretch:condensed;font-family:Impact;-inkscape-font-specification:'Impact Condensed';fill:#ffffff"
             id="path5549"
             inkscape:connector-curvature="0" />
        </g>
        <g
           style="font-style:normal;font-weight:normal;font-size:62.5px;line-height:125%;font-family:sans-serif;letter-spacing:0px;word-spacing:0px;fill:#000000;fill-opacity:1;stroke:none;stroke-width:1px;stroke-linecap:butt;stroke-linejoin:miter;stroke-opacity:1"
           id="text5384-5">
          <path
             d="m 585.74891,-105.34242 c 0,0 4.96925,101.1978094 4.96925,101.1978094 0,0 -22.07261,1.6174851 -22.07261,1.6174851 0,0 -1.58133,-56.5166295 -1.58133,-56.5166295 -0.21436,-7.661189 -0.49362,-12.194932 -0.83939,-13.685934 -0.34464,-1.486084 -1.21571,-2.538321 -2.61153,-3.159245 -1.35988,-0.662223 -4.37913,-0.765628 -9.04985,-0.312452 0,0 -1.99752,0.193808 -1.99752,0.193808 0,0 -0.15034,-11.055883 -0.15034,-11.055883 9.6095,-3.399856 16.81602,-9.105806 21.56711,-17.040639 0,0 11.76621,-1.23832 11.76621,-1.23832 0,0 0,0 0,0"
             style="font-style:normal;font-variant:normal;font-weight:normal;font-stretch:condensed;font-family:Impact;-inkscape-font-specification:'Impact Condensed';fill:#ffffff"
             id="path5552"
             inkscape:connector-curvature="0" />
        </g>
      </g>
    </g>
    <path
       style="fill:#281506;stroke:#281506;stroke-width:0.04655406"
       inkscape:connector-curvature="0"
       d="m 970.53702,17.786832 c 5.7021,-1.497038 11.64267,-1.997806 17.52142,-1.660858 5.39306,0.37794 10.77307,1.458756 15.76126,3.581472 3.1448,1.331285 6.1276,3.087109 8.6999,5.344671 1.3667,1.181382 2.5564,2.549979 3.6679,3.970625 2.1059,2.704526 3.9641,5.59417 5.6817,8.559258 1.9728,3.432375 3.7537,6.976699 5.328,10.609263 1.5826,3.685725 2.9752,7.45986 4.0189,11.33456 1.0232,3.82714 1.7576,7.77166 1.6851,11.74789 -0.062,2.18774 -0.3799,4.40622 -1.2652,6.42469 -0.6014,1.40206 -1.5427,2.62909 -2.5861,3.73041 -2.2017,2.29103 -4.9529,3.97703 -7.8156,5.31392 -0.5809,0.25976 -1.1563,0.53809 -1.7568,0.75124 l -0.08,-0.0652 c -1.0073,-1.06785 -2.1059,-2.04809 -3.2294,-2.99119 -1.5435,-1.26978 -3.1924,-2.43548 -5.0133,-3.27335 -1.5584,-0.71409 -3.3039,-1.19068 -5.0244,-0.91331 -0.4851,0.0642 -0.9412,0.24118 -1.3964,0.40965 -0.1956,0.0894 -0.4041,0.005 -0.6006,-0.0317 -2.117,-0.53617 -4.29,-0.7988 -6.45995,-1.00827 -0.36399,-0.0493 -0.73268,-0.0549 -1.0986,-0.0698 -1.18233,-0.082 -2.36838,-0.11258 -3.55343,-0.11451 0,-0.10889 -0.007,-0.21603 -0.007,-0.32204 2.72966,-0.38548 5.43129,-1.03614 8.00358,-2.03417 3.2304,-1.22046 6.2858,-2.93817 8.9522,-5.13791 2.6384,-2.17653 4.8867,-4.86344 6.391,-7.94575 1.645,-3.34221 2.3395,-7.1591 1.8853,-10.862447 0.8927,0.05592 1.8041,-0.187051 2.5182,-0.735544 1.3537,-0.997062 1.9038,-2.890614 1.389,-4.477005 -0.2562,-0.87231 -0.8398,-1.634759 -1.5921,-2.139371 -0.9225,-0.617204 -2.1374,-0.763413 -3.183,-0.394759 -0.4962,0.160146 -0.9282,0.460894 -1.3266,0.788555 -1.2429,-2.351565 -2.925,-4.454744 -4.8634,-6.270947 -0.6144,1.122771 -1.5371,2.100297 -2.7092,2.641101 -3.1689,-1.220463 -6.337,-2.440926 -9.506,-3.659619 0,1.185069 0,2.370296 0,3.555372 -2.3283,0.256069 -4.67621,-0.04194 -6.95715,-0.515832 -3.19044,-0.683332 -6.29433,-1.742692 -9.28823,-3.034897 0.003,1.183308 0,2.366459 0.002,3.549766 -1.84888,-0.218756 -3.64106,-1.042705 -4.93133,-2.398164 -1.04271,-1.030536 -1.72781,-2.363741 -2.20632,-3.728493 -0.0195,0.987768 -10e-4,1.977306 -0.009,2.966044 -1.13574,-0.302518 -2.19894,-0.884485 -3.03218,-1.716758 -0.68702,-0.679651 -1.20188,-1.509998 -1.60769,-2.381352 -0.78567,0.405009 -1.564,0.828592 -2.31075,1.302455 -3.59906,2.209201 -6.76354,5.20695 -8.91301,8.861933 -0.97848,1.683119 -1.75389,3.495799 -2.20918,5.392233 -1.42338,-0.110823 -2.86738,0.447763 -3.85788,1.472851 -1.87593,1.857196 -2.33203,4.873518 -1.35739,7.286588 0.58179,1.46067 1.73163,2.74455 3.23701,3.27319 0.93187,0.34719 1.96159,0.33422 2.91479,0.0847 1.43362,3.52752 3.88864,6.58099 6.79607,9.01183 4.92669,4.10467 11.13709,6.49066 17.46377,7.30067 l 0,0.96632 c -0.13965,0.0158 -0.27464,0.0381 -0.41141,0.0596 -2.50802,0.37057 -5.0002,0.8667 -7.43936,1.56317 -0.48973,0.13132 -0.96536,0.34078 -1.47749,0.36673 -2.38696,0.12203 -4.77025,0.34255 -7.13029,0.72145 -1.68232,0.2793 -3.36738,0.6172 -4.96481,1.22415 -0.80905,0.3315 -1.65252,0.70752 -2.22315,1.3955 -0.63496,0.86575 -0.75682,1.97267 -0.88351,3.008 -3.18015,-0.94309 -6.32219,-2.04169 -9.31528,-3.47994 -2.98096,-1.44484 -5.87349,-3.19233 -8.19524,-5.58393 -0.90017,-0.92163 -1.57152,-2.04345 -2.07885,-3.22211 -0.73363,-1.73902 -1.12182,-3.6047 -1.31365,-5.47599 -0.24297,-2.41402 -0.1741,-4.84934 0.0605,-7.26064 0.45528,-4.52457 1.49144,-8.974507 2.85345,-13.307222 1.5771,-4.948956 3.59348,-9.76771 6.1406,-14.29772 1.58176,-2.759448 3.34223,-5.445237 5.54486,-7.753085 2.6496,-2.748243 5.81116,-4.96865 9.1942,-6.721592 3.00899,-1.5446 6.19842,-2.730625 9.46985,-3.584361 z"
       id="path6289" />
    <path
       style="fill:#fcc896;stroke:#fcc896;stroke-width:0.02706445"
       inkscape:connector-curvature="0"
       d="m 968.63288,36.491733 c 0.74661,-0.473869 1.5249,-0.897452 2.31074,-1.302461 0.40596,0.871346 0.92067,1.701857 1.60769,2.381352 0.83323,0.832272 1.89643,1.414076 3.03218,1.71675 0.008,-0.988731 -0.0103,-1.978269 0.009,-2.966037 0.47851,1.364753 1.16377,2.697957 2.20631,3.728487 1.2903,1.355465 3.08247,2.179407 4.93134,2.398171 -0.002,-1.183308 10e-4,-2.366459 -0.002,-3.549774 2.99406,1.292212 6.09781,2.351566 9.28825,3.034905 2.28094,0.473869 4.62878,0.771736 6.95715,0.515825 0,-1.18507 0,-2.370296 0,-3.555373 3.16896,1.218544 6.33706,2.43917 9.50606,3.659633 1.1721,-0.540811 2.0946,-1.518337 2.7091,-2.641108 1.9382,1.816361 3.6206,3.919375 4.8635,6.27094 0.3984,-0.327653 0.8305,-0.628402 1.3266,-0.788548 1.0454,-0.368653 2.2605,-0.222437 3.183,0.394752 0.7523,0.504619 1.336,1.267069 1.592,2.139378 0.5149,1.586391 -0.036,3.479943 -1.3889,4.477005 -0.7141,0.548337 -1.6254,0.791274 -2.5182,0.735545 0.4542,3.703348 -0.2403,7.520388 -1.8853,10.862448 -1.5044,3.08247 -3.7527,5.76922 -6.391,7.94574 -2.6663,2.19991 -5.7217,3.91746 -8.9523,5.13792 -0.5232,-0.0549 -0.9934,0.2327 -1.48678,0.35664 -0.69359,0.24951 -1.4282,0.33519 -2.13107,0.54834 -0.91693,0.3054 -1.89448,0.31372 -2.83473,0.51119 -6.26911,0.92819 -12.78207,0.33887 -18.74009,-1.84519 -1.49415,-0.57156 -2.95675,-1.22335 -4.38028,-1.95233 -1.54174,-0.90866 -3.10937,-1.80323 -4.4658,-2.98286 -1.10966,-0.86397 -2.1711,-1.79762 -3.0945,-2.86178 -0.75781,-0.7783 -1.39085,-1.66278 -2.03142,-2.53589 -1.76975,-2.57417 -3.061,-5.5197 -3.48652,-8.62827 -0.21314,-1.29125 -0.19554,-2.603953 -0.17136,-3.907213 0.094,-1.971864 0.52593,-3.921301 1.21117,-5.770173 1.19997,-3.041467 3.07128,-5.811972 5.41081,-8.094833 0.8462,-0.890884 1.85914,-1.595686 2.75481,-2.431639 0.36112,-0.320927 0.98681,-0.442963 1.05938,-1.001542 m 2.521,6.861239 c -0.52514,0.715045 -0.71314,1.613296 -0.75125,2.484807 -0.62472,-0.03731 -1.25491,0.05029 -1.85641,0.220675 -0.34252,0.110823 -0.73455,0.270962 -0.8872,0.623766 -0.0801,0.369609 0.29978,0.628402 0.59592,0.754118 0.8052,0.3054 1.68967,0.397477 2.54342,0.296912 0.25319,0.535361 0.61816,1.060316 1.17675,1.30806 0.5288,0.256069 1.18795,0.148934 1.63667,-0.220682 0.66381,-0.531517 0.99803,-1.368597 1.13207,-2.186932 0.15261,-1.082742 0.008,-2.250194 -0.60327,-3.177433 -0.34159,-0.500932 -0.87695,-0.943096 -1.51288,-0.936526 -0.59958,-0.01954 -1.13495,0.364972 -1.47382,0.833235 m 33.15318,-0.530725 c -0.6731,0.484119 -1.0147,1.28933 -1.1851,2.076117 -0.8899,-0.02611 -1.8666,0.01762 -2.6235,0.540968 -0.2532,0.138683 -0.1787,0.450652 -0.1946,0.689901 0.7904,0.63866 1.8509,0.696314 2.8227,0.681421 0.1556,0.758762 0.4878,1.520255 1.107,2.013654 0.4468,0.366735 1.1042,0.471951 1.631,0.216838 0.6275,-0.284899 1.025,-0.903051 1.2662,-1.524891 0.3659,-0.979445 0.3825,-2.078842 0.088,-3.078786 -0.2216,-0.687983 -0.6042,-1.385252 -1.2634,-1.736287 -0.5139,-0.284736 -1.1806,-0.229813 -1.6479,0.121065 m 13.9691,3.547049 c -0.5223,0.06327 -1.0027,0.317404 -1.4048,0.647946 -0.1164,0.10329 -0.2784,0.24758 -0.1919,0.421657 0.5511,1.359146 1.093,2.744563 1.3145,4.203319 0.01,0.224363 0.2112,0.380829 0.4319,0.355686 0.7402,-0.03345 1.5194,-0.277375 2.0137,-0.858379 0.3975,-0.490682 0.6861,-1.087386 0.7261,-1.724119 0.1071,-0.862059 -0.2654,-1.728762 -0.8499,-2.349803 -0.5472,-0.489562 -1.2985,-0.798642 -2.0396,-0.696307 m -26.02514,1.225106 c 0.48881,0.05956 0.99053,0.094 1.45331,0.279293 0.79788,0.300749 1.57058,0.809048 1.96802,1.587354 0.35935,0.559542 0.3826,1.25858 0.29787,1.899158 -0.1443,0.726094 -0.69068,1.263381 -1.1889,1.771681 0.70943,0.03809 1.40944,-0.176802 2.05004,-0.464583 0.55116,-0.363046 1.11422,-0.778305 1.4113,-1.387171 0.48318,-0.816423 0.40872,-1.871297 -0.0285,-2.68867 -0.29879,-0.434795 -0.68703,-0.808092 -1.09938,-1.133984 -1.45139,-0.929001 -3.47162,-0.895534 -4.86345,0.136922 m 8.49333,9.317211 -29.05028,0 c -0.11915,-0.0122 -0.21507,0.0279 -0.28666,0.12011 0.0671,0.29883 0.27273,0.53633 0.45802,0.77078 0.47755,0.58181 0.89552,1.2131 1.43281,1.74558 0.91427,1.15624 1.9504,2.20727 2.96332,3.27608 0.57908,0.50269 1.07985,1.08834 1.67848,1.57053 1.95136,1.6479 4.07664,3.16527 6.5102,4.00683 2.16163,0.78855 4.56269,0.95799 6.79334,0.36128 1.29682,-0.39187 2.5639,-0.92819 3.66428,-1.727 1.44383,-0.9338 2.69428,-2.14305 3.78803,-3.46312 0.459,-0.63034 0.99339,-1.20189 1.41606,-1.8572 0.7028,-0.99979 1.3061,-2.06395 1.8713,-3.14669 0.2568,-0.5549 0.6293,-1.0744 0.7197,-1.69064 -0.6538,0.007 -1.3064,0.054 -1.9589,0.0335 z"
       id="path6291" />
    <path
       style="fill:#f0bb8f;stroke:#f0bb8f;stroke-width:0.04655406"
       inkscape:connector-curvature="0"
       d="m 959.71925,45.347732 c 2.14961,-3.654983 5.31391,-6.652732 8.913,-8.861926 -0.0726,0.558586 -0.69824,0.680614 -1.05951,1.001706 -0.89553,0.835953 -1.90847,1.540748 -2.75482,2.431638 -2.33957,2.282698 -4.21069,5.053367 -5.41081,8.094833 -0.68527,1.848872 -1.11716,3.79831 -1.21118,5.770173 -0.024,1.303418 -0.0419,2.615967 0.17136,3.907207 0.42549,3.10857 1.71674,6.05411 3.48653,8.62828 0.64058,0.87327 1.27361,1.75758 2.03142,2.53589 0.92355,1.06416 1.98484,1.9978 3.09446,2.86178 1.35643,1.17946 2.92425,2.0742 4.46581,2.98286 1.42337,0.72898 2.88597,1.38061 4.38027,1.95232 5.95819,2.18405 12.47125,2.77339 18.74016,1.84519 0.94017,-0.1973 1.91773,-0.20579 2.83472,-0.51118 0.70287,-0.21315 1.43741,-0.29883 2.13101,-0.54834 0.49343,-0.12379 0.96353,-0.41157 1.48673,-0.35664 -2.57221,0.99802 -5.27384,1.64869 -8.0035,2.03416 0,0.10617 0,0.21315 0.007,0.32205 1.18505,0.002 2.3711,0.0325 3.55344,0.1145 -0.14152,0.006 -0.28196,0.0176 -0.42084,0.0317 0.16477,0.83692 0.37697,1.6748 0.34259,2.53589 0.0307,2.62158 -1.23541,5.24042 -3.34687,6.80536 -1.07905,0.86958 -2.43628,1.33128 -3.79837,1.51289 -1.50068,-0.0633 -2.91668,-0.72145 -4.10175,-1.61523 -1.22511,-1.00074 -2.1943,-2.33203 -2.67185,-3.84763 -0.2793,-0.84444 -0.41623,-1.72877 -0.48589,-2.61228 -0.04,-0.72979 0.13772,-1.44483 0.20291,-2.16724 0.13692,-0.0215 0.27193,-0.0437 0.41141,-0.0596 l 0,-0.96632 c -6.32588,-0.80985 -12.53646,-3.196 -17.46378,-7.30067 -2.90742,-2.43084 -5.3623,-5.48432 -6.79607,-9.01183 -0.13228,-0.35376 -0.26903,-0.70559 -0.40501,-1.05759 -0.64139,0.0642 -1.30519,0.1499 -1.9299,-0.0633 -0.86576,-0.22804 -1.56782,-0.83883 -2.10592,-1.53146 -0.48604,-0.62184 -0.75123,-1.38252 -0.9282,-2.14306 -0.29225,-1.51 -0.0373,-3.168933 0.88817,-4.422071 0.41062,-0.612553 0.98876,-1.104197 1.65799,-1.413113 0.52046,-0.252231 1.10691,-0.295149 1.67288,-0.360329 0.0633,-0.376977 0.12843,-0.754118 0.21314,-1.126459 0.45576,-1.896434 1.23135,-3.709107 2.20984,-5.392226 z"
       id="path6293" />
    <path
       style="fill:#1a1615;stroke:#1a1615;stroke-width:0.04655406"
       inkscape:connector-curvature="0"
       d="m 971.15357,43.345925 c 0.33886,-0.468263 0.87422,-0.852772 1.47365,-0.833235 0.63593,-0.0064 1.17114,0.435751 1.51288,0.936526 0.6116,0.927239 0.75589,2.094697 0.60327,3.177432 -0.13404,0.818335 -0.46826,1.655259 -1.13207,2.186933 -0.44872,0.369616 -1.10787,0.476594 -1.63667,0.220682 -0.55858,-0.24758 -0.92355,-0.772699 -1.17674,-1.308061 0.58645,-0.09208 1.24192,-0.176002 1.68696,-0.609828 0.20387,-0.185289 0.17408,-0.521274 -0.0391,-0.685265 -0.56322,-0.47387 -1.33961,-0.540968 -2.04343,-0.600541 0.0381,-0.871347 0.22626,-1.769598 0.75123,-2.484643 z"
       id="path6295" />
    <path
       style="fill:#1a1615;stroke:#1a1615;stroke-width:0.04655406"
       inkscape:connector-curvature="0"
       d="m 1004.3115,42.817447 c 0.4673,-0.351035 1.134,-0.405965 1.6479,-0.121066 0.6592,0.351035 1.0418,1.048305 1.2634,1.736281 0.2951,0.999944 0.2783,2.099341 -0.088,3.078785 -0.2412,0.62184 -0.6387,1.24 -1.2661,1.524899 -0.5269,0.255113 -1.1843,0.149896 -1.6311,-0.216838 -0.6191,-0.493406 -0.9514,-1.254893 -1.1069,-2.013662 0.6554,-0.06883 1.362,-0.14797 1.9028,-0.561303 0.2598,-0.176003 0.2756,-0.582767 0.028,-0.775581 -0.54,-0.434796 -1.268,-0.520469 -1.9355,-0.575398 0.1706,-0.78663 0.5122,-1.591998 1.1852,-2.076117 z"
       id="path6297" />
    <path
       style="fill:#fefffd;stroke:#fefffd;stroke-width:0.04655406"
       inkscape:connector-curvature="0"
       d="m 1000.5001,45.443818 c 0.7568,-0.523193 1.7334,-0.56691 2.6235,-0.540968 0.6674,0.05492 1.3955,0.14061 1.9355,0.575399 0.2475,0.192657 0.2319,0.599585 -0.028,0.775581 -0.541,0.413333 -1.2476,0.492443 -1.9029,0.56131 -0.9719,0.01491 -2.0322,-0.0428 -2.8227,-0.68142 0.016,-0.239414 -0.058,-0.551218 0.1944,-0.689902 z"
       id="path6299" />
    <path
       style="fill:#fefffd;stroke:#fefffd;stroke-width:0.04655406"
       inkscape:connector-curvature="0"
       d="m 968.54641,46.05237 c 0.60136,-0.170396 1.23165,-0.25783 1.85641,-0.220683 0.70382,0.05956 1.48021,0.126679 2.04343,0.600542 0.21316,0.163834 0.24294,0.499975 0.0391,0.685265 -0.44505,0.433826 -1.10036,0.517586 -1.68697,0.609828 -0.85375,0.100573 -1.73803,0.0083 -2.54342,-0.296904 -0.29609,-0.125716 -0.67581,-0.384509 -0.59588,-0.754125 0.15294,-0.352961 0.54479,-0.5131 0.88735,-0.623923 z"
       id="path6301" />
    <path
       style="fill:#f0bb8f;stroke:#f0bb8f;stroke-width:0.04655406"
       inkscape:connector-curvature="0"
       d="m 1018.2761,46.372655 c 0.741,-0.102491 1.4924,0.206753 2.0397,0.696314 0.5848,0.620877 0.9571,1.487744 0.8499,2.349804 -0.04,0.636733 -0.3286,1.233594 -0.726,1.724118 -0.4944,0.580841 -1.2737,0.824898 -2.0137,0.858372 -0.2207,0.02511 -0.4235,-0.131322 -0.4319,-0.355678 -0.2217,-1.458764 -0.7634,-2.844173 -1.3144,-4.203319 -0.087,-0.174077 0.075,-0.318367 0.1918,-0.421664 0.4021,-0.330536 0.8824,-0.584686 1.4046,-0.647947 z"
       id="path6303" />
    <path
       style="fill:#f0bb8f;stroke:#f0bb8f;stroke-width:0.04655406"
       inkscape:connector-curvature="0"
       d="m 992.25105,47.589758 c 1.39183,-1.032455 3.41199,-1.065922 4.86345,-0.136921 0.41234,0.325891 0.80051,0.699188 1.09938,1.133977 0.43745,0.817379 0.51192,1.87226 0.0285,2.688677 -0.29694,0.608865 -0.86015,1.024124 -1.41137,1.387171 -0.6406,0.287624 -1.34062,0.502693 -2.05005,0.464575 0.49809,-0.508292 1.04446,-1.045416 1.18897,-1.77168 0.0847,-0.640578 0.0613,-1.33961 -0.29787,-1.899152 -0.39751,-0.778305 -1.17021,-1.286605 -1.96801,-1.587354 -0.46285,-0.185132 -0.96458,-0.219719 -1.45332,-0.279293 z"
       id="path6305" />
    <path
       style="fill:#fcc897;stroke:#fcc897;stroke-width:0.04655406"
       inkscape:connector-curvature="0"
       d="m 953.65296,52.217937 c 0.9905,-1.02508 2.43451,-1.583509 3.85789,-1.472851 -0.0847,0.372341 -0.14991,0.749482 -0.21317,1.12646 -0.56594,0.06519 -1.15254,0.107941 -1.67285,0.360329 -0.66942,0.309079 -1.24756,0.80056 -1.65799,1.413113 -0.92532,1.253131 -1.18041,2.912065 -0.88817,4.422075 0.17679,0.76069 0.44216,1.52122 0.9282,2.14306 0.5381,0.69263 1.24001,1.30342 2.10592,1.53146 0.62472,0.21315 1.28852,0.12748 1.92991,0.0633 0.13594,0.352 0.27272,0.70383 0.405,1.05759 -0.95334,0.24951 -1.98292,0.26247 -2.91481,-0.0847 -1.50535,-0.5288 -2.65504,-1.81251 -3.23698,-3.27319 -0.97497,-2.41306 -0.51873,-5.429386 1.35705,-7.286589 z"
       id="path6307" />
    <path
       style="fill:#f5a4aa;stroke:#f5a4aa;stroke-width:0.04655406"
       inkscape:connector-curvature="0"
       d="m 1000.7403,56.910173 c 0.6526,0.0206 1.3052,-0.0261 1.9587,-0.0335 -0.09,0.61623 -0.4626,1.13575 -0.7196,1.69064 -0.5652,1.08274 -1.1685,2.1469 -1.8713,3.14669 -0.42265,0.65547 -0.95711,1.22703 -1.41604,1.85719 -1.09396,1.32008 -2.3442,2.52949 -3.7881,3.46313 -1.10031,0.7988 -2.36739,1.33497 -3.66428,1.727 -2.23065,0.5967 -4.63151,0.42727 -6.7933,-0.36129 -2.43357,-0.84156 -4.559,-2.35909 -6.51021,-4.00681 -0.59862,-0.4822 -1.09939,-1.06785 -1.67847,-1.57054 -1.01292,-1.0688 -2.04905,-2.11983 -2.96332,-3.27608 -0.53713,-0.53249 -0.9551,-1.16377 -1.43282,-1.74558 -0.18528,-0.23461 -0.39107,-0.47194 -0.45801,-0.77077 0.0717,-0.0921 0.16752,-0.13212 0.28666,-0.12011 l 29.05029,0 z"
       id="path6309" />
    <path
       style="fill:#e3af88;stroke:#e3af88;stroke-width:0.04655406"
       inkscape:connector-curvature="0"
       d="m 996.15377,79.586663 c 0.13867,-0.0139 0.27925,-0.0252 0.42084,-0.0317 0.36592,0.0149 0.73461,0.0205 1.0986,0.0698 0.11641,0.7253 0.28952,1.44483 0.31277,2.18213 0,1.50071 -0.25785,3.02946 -0.98219,4.35978 -0.45436,0.8137 -0.99046,1.59569 -1.69333,2.21576 -0.5391,0.46267 -1.07905,0.9431 -1.72878,1.24561 -1.29782,0.65067 -2.77902,1.0166 -4.23041,0.81274 1.36201,-0.18161 2.71946,-0.64331 3.7983,-1.51289 2.11153,-1.56494 3.37761,-4.18378 3.34687,-6.80535 0.0342,-0.8611 -0.1779,-1.69898 -0.34267,-2.5359 z"
       id="path6311" />
    <path
       style="fill:#c3a0c1;stroke:#c3a0c1;stroke-width:0.04655406"
       inkscape:connector-curvature="0"
       d="m 997.67349,79.634713 c 2.17017,0.20947 4.34301,0.47194 6.45991,1.00827 0.1965,0.0364 0.405,0.12107 0.6006,0.0317 0.4553,-0.16847 0.9114,-0.34543 1.3965,-0.40965 1.7204,-0.27737 3.466,0.19922 5.0243,0.9133 1.821,0.83788 3.4697,2.00342 5.0133,3.27337 1.1238,0.94308 2.2222,1.92333 3.2295,2.99118 0.3054,0.58933 0.8789,0.95238 1.2829,1.46356 0.4813,0.5762 1.0325,1.10692 1.4226,1.75118 -0.095,0.26904 -0.3911,0.40213 -0.6116,0.56051 -0.4571,0.26071 -0.864,0.59589 -1.24,0.96166 -0.5745,0.49709 -1.2195,0.90306 -1.8303,1.35371 -1.2093,0.88256 -2.4409,1.7334 -3.6513,2.6142 -0.01,0.24951 -0.01,0.49901 -0.01,0.75044 0.01,0.92916 0.1089,1.8572 0.045,2.78828 -0.1071,1.426237 -0.026,2.859057 -0.1582,4.284347 -0.027,1.18507 -0.2607,2.35445 -0.2868,3.53952 -0.013,0.72433 -0.2012,1.42801 -0.2766,2.14594 -0.1694,1.28564 -0.2942,2.57785 -0.5325,3.85324 -0.2336,2.11887 -0.7111,4.19771 -1.0669,6.29609 -0.059,0.28298 -0.1396,0.56131 -0.2168,0.8406 -1.9243,-0.44504 -3.9054,-0.19185 -5.8493,-0.0576 -1.6664,0.10329 -3.331,-0.0606 -4.9945,-0.13404 -1.3062,-0.14237 -2.62263,-0.14429 -3.93064,-0.25512 0.10057,-0.15645 -0.20486,-0.10617 -0.28025,-0.1145 -0.94582,0.0923 -1.89548,0.0437 -2.84229,0.008 0.0506,-0.0913 0.12668,-0.13869 0.22711,-0.14061 -1.18976,0.0354 -2.38422,0.006 -3.57027,-0.10249 -1.22513,-0.1555 -2.46432,-0.14798 -3.69309,-0.25975 -1.02686,-0.0373 -2.04634,-0.17136 -3.07223,-0.20852 -4.76846,-0.29418 -9.53774,-0.59109 -14.3062,-0.88816 -0.71681,-0.11818 -1.40944,0.13133 -2.0891,0.31741 -0.62746,0.176 -1.25491,0.35008 -1.88155,0.53072 -0.34252,-0.83884 -0.45706,-1.74189 -0.71681,-2.60395 -0.552,-2.00438 -1.02491,-4.03021 -1.46723,-6.06052 -0.14332,-0.97096 -0.39572,-1.92158 -0.56131,-2.88789 -0.11915,-0.62184 -0.12939,-1.25858 -0.27273,-1.87593 -0.15087,-0.64987 -0.15549,-1.32008 -0.26071,-1.97651 -0.24662,-1.51096 -0.19649,-3.05268 -0.38915,-4.568287 -0.30718,-0.10153 -0.63595,-0.0745 -0.9543,-0.0745 -0.72531,0.004 -1.45414,0.0345 -2.17749,-0.0456 -0.10714,-0.82106 -0.31277,-1.62451 -0.4236,-2.44477 -0.28393,-1.82564 -0.49532,-3.6633 -0.62742,-5.50577 -0.005,-0.93653 -0.0522,-1.87689 0.041,-2.81054 0.12665,-1.03517 0.2485,-2.14209 0.8835,-3.00799 0.57075,-0.68799 1.41407,-1.06416 2.22311,-1.39551 1.59762,-0.60695 3.28268,-0.94485 4.96481,-1.22415 2.36005,-0.3789 4.74335,-0.59957 7.1303,-0.72145 0.51198,-0.0261 0.98778,-0.23557 1.4775,-0.36673 2.43916,-0.69631 4.93134,-1.1926 7.43936,-1.56317 -0.0652,0.72241 -0.24294,1.43746 -0.2029,2.16723 0.0698,0.88353 0.20674,1.76785 0.48587,2.6123 0.47756,1.5156 1.44675,2.84688 2.67186,3.84763 1.18507,0.89376 2.60103,1.55196 4.10178,1.61522 1.45138,0.20386 2.93259,-0.16191 4.23041,-0.81273 0.64987,-0.30252 1.18968,-0.78295 1.72871,-1.24561 0.70287,-0.62008 1.23904,-1.40207 1.6934,-2.21576 0.72434,-1.33033 0.98027,-2.85907 0.98219,-4.35979 -0.0235,-0.73746 -0.19651,-1.45715 -0.31277,-2.18229 z"
       id="path6313" />
    <path
       style="fill:#fcc896;stroke:#fcc896;stroke-width:0.04655406"
       inkscape:connector-curvature="0"
       d="m 941.46113,102.40729 c 5.55606,-3.708957 11.11294,-7.415187 16.67429,-11.117567 0.13209,1.84246 0.34349,3.68013 0.62742,5.50578 0.11083,0.82009 0.3166,1.62354 0.42359,2.44477 -0.63961,0.34719 -1.22044,0.786617 -1.82838,1.186027 -8.26042,5.50673 -16.5253,11.0077 -24.78398,16.52052 -1.4988,0.9961 -2.99952,1.9922 -4.48996,3.0024 -0.082,0.77926 -0.19457,1.58175 -0.6052,2.26684 -0.38722,0.71681 -1.01564,1.24849 -1.63108,1.7624 0.1145,0.28761 0.2412,0.58468 0.22533,0.90209 -0.22806,0.42631 -0.4673,0.95975 -0.9905,1.07249 -1.56781,0.34079 -3.17742,0.0903 -4.76287,0.20018 -0.18895,-0.0149 -0.22533,0.19554 -0.32027,0.31469 -0.0466,0.0139 -0.13775,0.0419 -0.18337,0.0568 -2.30511,-0.0456 -4.42305,-1.49512 -5.61278,-3.42037 -0.52974,-0.88064 -0.9272,-1.94944 -0.63865,-2.97997 0.32496,-1.14135 1.08643,-2.11055 1.97186,-2.8786 1.01853,-0.91796 2.22873,-1.60962 3.51806,-2.07052 0.32204,0.50094 -0.0847,1.10228 0.14718,1.61891 0.55026,0.0857 1.10884,0.0215 1.66279,0.0334 1.05665,0.009 2.11328,-0.0344 3.16896,0.007 0.30441,0.005 0.61444,0.0225 0.91427,-0.0428 0.14329,-0.17504 0.11175,-0.42086 0.12939,-0.6284 -0.0129,-0.87231 0.0894,-1.79682 -0.32959,-2.59835 1.68967,-1.17771 3.43429,-2.27438 5.12592,-3.4492 3.87822,-2.5455 7.71833,-5.14945 11.58742,-7.70857 z"
       id="path6315" />
    <path
       style="fill:#fcc896;stroke:#fcc896;stroke-width:0.02706445"
       inkscape:connector-curvature="0"
       d="m 1018.4202,93.519263 c 0.6107,-0.45065 1.2559,-0.85646 1.8303,-1.35371 8.0202,7.09857 16.0561,14.177767 24.0826,21.270417 0.4692,0.40773 0.9077,0.85646 1.4365,1.19163 0.6396,-0.31467 1.2791,-0.63032 1.9392,-0.89937 0.8518,-0.1824 1.6785,-0.51021 2.4196,-0.96999 0.4804,-0.25976 1.0269,-0.3472 1.5435,-0.51199 0.8723,-0.26535 1.8015,-0.32396 2.7016,-0.17599 0.2476,0.36865 0.6443,0.67309 0.6983,1.14327 0.064,0.56692 -0.2151,1.10228 -0.1993,1.67111 0.8257,-0.2439 1.5827,-0.78486 2.4756,-0.75124 0.2829,-0.0149 0.6042,0.0894 0.7075,0.38259 0.3071,0.76437 0.229,1.645 -0.1191,2.38327 0.5538,0.28121 1.1571,0.51951 1.5881,0.98681 0.2383,0.2644 0.406,0.68606 0.1955,1.01757 -0.2224,0.33229 -0.5595,0.56514 -0.8704,0.80808 -0.768,0.58373 -1.6516,0.98313 -2.5071,1.41697 0.5279,0.147 1.0799,0.25222 1.564,0.52414 0.2346,0.13404 0.4851,0.38083 0.4143,0.67966 -0.097,0.38451 -0.4394,0.63209 -0.7456,0.84909 -0.8322,0.57251 -1.862,0.81001 -2.8645,0.73922 0.2002,-0.8454 0.2514,-1.73068 0.1611,-2.59274 -0.6106,-0.0474 -1.2019,0.16751 -1.8061,0.20483 -0.89,0.0568 -1.8005,0.12379 -2.6719,-0.0996 -0.1787,-0.0391 -0.4868,-0.11259 -0.5278,0.14333 0.01,0.58276 0.1973,1.14791 0.2541,1.72876 0.069,0.66556 0.3213,1.3015 0.337,1.97362 -0.2664,-0.0288 -0.5269,-0.093 -0.7793,-0.176 -2.102,-1.01291 -4.1391,-2.15523 -6.1676,-3.30587 -0.5298,-0.35007 -1.1368,-0.57443 -1.6321,-0.97479 -9.0387,-7.98017 -18.0771,-15.96147 -27.1172,-23.938437 0,-0.25142 0.01,-0.50093 0.01,-0.75044 1.2102,-0.88047 2.4418,-1.73148 3.6511,-2.61403 m 36.2535,20.429647 c -0.2691,0.62185 -0.8425,1.03053 -1.3686,1.42257 -1.2885,0.78295 -2.7678,1.17867 -4.2378,1.45236 -0.8388,0.15454 -1.6618,0.45625 -2.5209,0.4468 -0.3743,0.008 -0.5186,-0.36866 -0.648,-0.64987 -0.1509,0.29883 -0.021,0.69455 0.2756,0.84988 0.4199,0.24199 0.9273,0.17601 1.3899,0.13693 0.5884,-0.0754 1.1972,-0.0633 1.7595,-0.27657 0.1294,0.58837 0.024,1.20749 0.2449,1.78273 0.5251,-0.34719 0.9143,-0.85181 1.4169,-1.22703 0.5456,-0.47947 1.2131,-0.82298 1.6645,-1.40479 0.3316,-0.13212 0.5811,-0.41333 0.8807,-0.60423 0.3081,-0.24389 0.6853,-0.41797 0.9338,-0.72609 0.065,-0.24117 0.122,-0.48507 0.2468,-0.70383 0.1723,-0.31004 0.1919,-0.66845 0.2029,-1.01388 -0.084,0.16959 -0.1611,0.34271 -0.2402,0.51502 m -5.0031,5.98798 c -0.083,0.25607 0.01,0.52223 0.055,0.77734 0.4003,-0.23189 0.7773,-0.50093 1.131,-0.7988 -0.3565,-0.2495 -0.8137,-0.11082 -1.186,0.0215 z"
       id="path6317" />
    <path
       style="fill:#debfad;stroke:#debfad;stroke-width:0.04655406"
       inkscape:connector-curvature="0"
       d="m 1051.2018,110.51061 c 0.3687,-0.16111 0.7691,-0.23653 1.1712,-0.25783 0.4319,0.0261 0.8723,0.16014 1.1814,0.47947 0.405,0.35472 0.5949,0.86766 0.8183,1.34249 -0.9002,-0.14797 -1.8293,-0.0894 -2.7016,0.176 -0.5167,0.16479 -1.0632,0.25223 -1.5435,0.51199 -0.741,0.45993 -1.5678,0.78758 -2.4196,0.96999 0.6284,-0.3472 1.3108,-0.57444 1.9643,-0.86862 0.2652,-0.9077 0.647,-1.88138 1.5295,-2.35349 z"
       id="path6319" />
    <path
       style="fill:#debfad;stroke:#debfad;stroke-width:0.04655406"
       inkscape:connector-curvature="0"
       d="m 921.61281,112.01597 c 0.23827,-0.0205 0.47754,-0.0391 0.71682,-0.0606 0.44677,0.081 0.8984,0.19458 1.29316,0.42823 0.47658,0.27657 0.85006,0.70384 1.12549,1.17771 0.41893,0.80152 0.3166,1.72603 0.32958,2.59834 -0.0178,0.20755 0.014,0.45337 -0.12939,0.62841 -0.2998,0.0652 -0.60983,0.0476 -0.91427,0.0428 -1.05568,-0.0418 -2.11232,0.002 -3.16895,-0.007 -0.55392,-0.0122 -1.11254,0.0521 -1.6628,-0.0335 -0.23188,-0.51662 0.17505,-1.11813 -0.14714,-1.6189 0.0122,-0.10713 0.024,-0.21603 0.0381,-0.3174 0.0754,-0.54002 0.18429,-1.09572 0.5009,-1.55101 0.47037,-0.67052 1.20959,-1.14808 2.01848,-1.28676 z"
       id="path6321" />
    <path
       style="fill:#eebb8f;stroke:#eebb8f;stroke-width:0.04655406"
       inkscape:connector-curvature="0"
       d="m 1054.677,113.95372 c 0.079,-0.17232 0.1565,-0.34543 0.2402,-0.51487 -0.011,0.34543 -0.031,0.70384 -0.2029,1.01388 -0.1248,0.21876 -0.1816,0.46266 -0.2468,0.70384 -0.2485,0.30811 -0.6255,0.48219 -0.9338,0.72609 -0.2998,0.19089 -0.5493,0.47195 -0.8806,0.60423 -0.3379,0.004 -0.6907,-0.0176 -0.9998,0.14333 -0.7346,0.36401 -1.5659,0.4199 -2.3265,0.70559 -0.5622,0.21316 -1.1711,0.20115 -1.7594,0.27658 -0.4626,0.0391 -0.97,0.10521 -1.3899,-0.13693 -0.297,-0.1555 -0.4263,-0.55106 -0.2756,-0.84989 0.1294,0.28122 0.2737,0.65724 0.6479,0.64988 0.8594,0.009 1.6823,-0.29227 2.521,-0.44681 1.47,-0.27369 2.9494,-0.66941 4.2378,-1.45235 0.5258,-0.39204 1.0993,-0.80073 1.3684,-1.42257 z"
       id="path6323" />
    <path
       style="fill:#e0bfa8;stroke:#e0bfa8;stroke-width:0.04655406"
       inkscape:connector-curvature="0"
       d="m 1051.6502,116.62813 c 0.3092,-0.1611 0.6619,-0.13964 0.9998,-0.14332 -0.4514,0.5818 -1.119,0.92531 -1.6645,1.40479 -0.5027,0.37521 -0.8918,0.87983 -1.4169,1.22702 -0.2207,-0.5754 -0.1155,-1.19435 -0.2449,-1.78273 0.7606,-0.28585 1.592,-0.34175 2.3265,-0.70576 z"
       id="path6325" />
    <path
       style="fill:#d7715d;stroke:#d7715d;stroke-width:0.04655406"
       inkscape:connector-curvature="0"
       d="m 967.86739,118.80611 c 0.67965,-0.18625 1.37228,-0.43576 2.0891,-0.31741 4.76846,0.29691 9.53773,0.59398 14.3062,0.88816 1.02589,0.0373 2.04537,0.17136 3.0722,0.20851 1.22898,0.11178 2.46803,0.10425 3.69309,0.25976 -0.54366,0.10521 -1.09567,0.0476 -1.64226,0.0139 -1.1516,-0.0149 -2.29485,-0.17681 -3.44551,-0.20195 -1.02493,-0.0576 -2.04537,-0.18528 -3.07318,-0.18433 -0.93189,-0.0437 -1.8572,-0.18704 -2.79196,-0.1824 -3.2314,-0.19186 -6.45912,-0.43752 -9.69037,-0.60695 -0.45993,-0.0474 -0.9282,-0.10233 -1.38525,-0.009 -2.10493,0.52511 -4.16985,1.1926 -6.24117,1.83686 -1.63939,0.55298 -3.27974,1.10499 -4.8876,1.74653 -1.87127,0.76245 -3.76757,1.48022 -5.5578,2.42331 -0.74565,0.32958 -1.48313,0.68334 -2.18504,1.0994 -0.60135,0.36401 -1.24289,0.65915 -1.83589,1.03982 -0.94677,0.55858 -1.85448,1.1833 -2.73992,1.83494 -0.60054,0.55298 -1.30615,0.9812 -1.86842,1.57614 -0.45624,0.47387 -0.96725,0.89937 -1.35369,1.4365 -0.4348,0.60422 -0.90403,1.18971 -1.23631,1.86104 -0.50734,0.96071 -0.81467,2.0332 -0.88529,3.1169 0.0129,1.64869 0.64524,3.24437 1.57326,4.58783 0.5456,0.72144 1.08643,1.45506 1.75759,2.06762 1.12278,1.15064 2.40475,2.1272 3.62985,3.1643 1.42431,1.03613 2.82447,2.10766 4.3151,3.04707 0.77174,0.52128 1.55469,1.02685 2.37669,1.46725 0.72339,0.4934 1.49706,0.90401 2.25117,1.34809 0.87135,0.45994 1.70746,0.98505 2.60202,1.40111 1.32759,0.75973 2.73511,1.36299 4.10274,2.04537 2.64768,1.29781 5.37639,2.42139 8.09565,3.55729 1.32375,0.55026 2.66721,1.05199 3.99945,1.58079 0.70288,0.30636 1.44675,0.50268 2.1477,0.81271 0.55586,0.2412 1.18427,0.34079 1.6543,0.75046 -0.053,-0.014 -0.1611,-0.041 -0.21412,-0.0549 -0.35744,-0.0894 -0.70848,-0.2029 -1.05294,-0.3296 -0.73267,-0.34718 -1.5137,-0.57443 -2.25661,-0.8947 -1.67575,-0.63209 -3.33373,-1.30982 -4.99283,-1.98387 -3.19793,-1.27171 -6.32027,-2.72118 -9.42049,-4.21165 -2.67652,-1.36107 -5.31954,-2.79292 -7.87416,-4.37083 -3.26311,-2.03512 -6.39957,-4.29636 -9.20817,-6.92914 -1.08932,-1.05199 -2.10766,-2.21191 -2.77146,-3.58612 -0.88066,-1.60865 -1.11431,-3.58243 -0.53905,-5.33266 0.49148,-1.59936 1.50264,-2.98749 2.65984,-4.17352 1.13767,-1.10501 2.36005,-2.12545 3.68571,-2.99775 2.6831,-1.81444 5.61374,-3.22388 8.57976,-4.50679 3.47725,-1.47462 7.05294,-2.70821 10.67637,-3.76677 0.62683,-0.18096 1.25428,-0.35504 1.8817,-0.53103 z"
       id="path6327" />
    <path
       style="fill:#f55b27;stroke:#f55b27;stroke-width:0.04655406"
       inkscape:connector-curvature="0"
       d="m 962.75877,120.50364 c 2.07149,-0.64426 4.13623,-1.31175 6.24115,-1.83686 0.45706,-0.093 0.92532,-0.0381 1.38526,0.009 3.23141,0.16943 6.45913,0.41525 9.69036,0.60695 0.93478,-0.005 1.86009,0.13868 2.79197,0.1824 1.02781,-0.001 2.04809,0.12667 3.07318,0.18433 1.15061,0.0251 2.29393,0.18704 3.44553,0.20194 0.54637,0.0335 1.0986,0.0913 1.64226,-0.0139 1.18605,0.10793 2.38058,0.13772 3.57027,0.10249 -0.10058,0.002 -0.17683,0.0493 -0.22711,0.1406 0.94681,0.0354 1.89647,0.0838 2.84229,-0.008 0.0754,0.008 0.38082,-0.0419 0.28025,0.11451 -0.75031,-0.0773 -1.50346,0.0279 -2.25483,0.0112 1.73998,0.14332 3.48745,0.18336 5.22645,0.34719 2.0938,0.0735 4.1875,0.36208 6.2841,0.17599 1.4067,-0.13035 2.8237,-0.22244 4.235,-0.12106 0.8203,0.0903 1.6189,0.32205 2.3972,0.59029 0.8769,0.38547 1.7632,0.79047 2.5071,1.40863 2.0936,1.59472 3.6176,3.81609 4.7628,6.16205 0.6982,1.33128 1.1674,2.76314 1.698,4.166 1.0454,3.28441 1.795,6.66475 2.2149,10.08704 0.043,0.39572 0.1117,0.78951 0.1842,1.18235 0.088,0.65915 0.1434,1.32103 0.2263,1.98195 0.136,0.9077 0.092,1.83029 0.1927,2.74359 0.041,1.48951 0.036,2.98094 0.039,4.47237 -0.024,1.33496 0.045,2.67938 -0.1695,4.0041 -0.1777,1.58831 -1.1525,2.97164 -2.3394,3.99195 -0.7337,0.61159 -1.5492,1.12178 -2.388,1.5771 -0.7503,0.38723 -1.5407,0.6899 -2.3125,1.02954 -0.2121,0.081 -0.4199,0.16943 -0.633,0.24393 -2.9697,1.02877 -6.0942,1.51192 -9.2054,1.87593 -1.0604,0.041 -2.1123,0.22899 -3.1755,0.18799 -0.7327,-0.0263 -1.4588,0.0996 -2.1915,0.0791 -1.727,-0.0129 -3.45941,0.0679 -5.18177,-0.0828 -1.04268,0.0111 -2.08072,-0.0959 -3.11962,-0.17506 -1.11621,-0.0456 -2.21945,-0.2522 -3.33567,-0.29882 -1.25024,-0.11915 -2.48942,-0.34623 -3.72283,-0.58083 -1.6572,-0.33233 -3.30493,-0.73267 -4.89597,-1.30711 -0.90401,-0.34449 -1.80515,-0.69264 -2.70628,-1.04078 -0.3733,-0.14237 -0.74756,-0.27738 -1.11525,-0.43111 -0.47018,-0.40966 -1.09859,-0.50926 -1.6543,-0.75045 -0.70095,-0.31003 -1.44482,-0.50638 -2.1477,-0.81274 -1.33224,-0.5288 -2.67554,-1.03053 -3.99945,-1.58078 -2.71942,-1.13575 -5.44795,-2.25948 -8.09562,-3.5573 -1.36764,-0.68238 -2.77516,-1.28564 -4.10275,-2.04537 -0.89474,-0.41621 -1.73071,-0.94117 -2.60205,-1.4011 -0.75412,-0.44408 -1.52779,-0.8547 -2.25114,-1.3481 -0.82202,-0.4404 -1.60497,-0.94582 -2.37672,-1.46725 -1.49044,-0.93941 -2.89061,-2.01094 -4.31509,-3.04707 -1.22512,-1.0371 -2.50709,-2.01366 -3.62983,-3.1643 -0.67118,-0.61255 -1.21217,-1.34618 -1.75758,-2.06763 -0.92821,-1.34346 -1.56032,-2.93913 -1.57329,-4.58782 0.0707,-1.0837 0.37794,-2.15619 0.88527,-3.1169 0.33233,-0.67116 0.80155,-1.25681 1.23632,-1.86104 0.38645,-0.53712 0.89748,-0.96263 1.35373,-1.4365 0.56227,-0.59494 1.26803,-1.02316 1.86839,-1.57614 0.88527,-0.65163 1.793,-1.27636 2.73991,-1.83494 0.59304,-0.38083 1.23439,-0.67581 1.83592,-1.03982 0.70192,-0.41622 1.43921,-0.76998 2.185,-1.09939 1.79027,-0.9431 3.68668,-1.66087 5.55785,-2.42332 1.60719,-0.64121 3.24754,-1.19323 4.88694,-1.74621 z"
       id="path6329" />
    <path
       style="fill:#e5bea1;stroke:#e5bea1;stroke-width:0.04655406"
       inkscape:connector-curvature="0"
       d="m 1049.6645,119.94313 c 0.3723,-0.13212 0.8295,-0.27096 1.186,-0.0215 -0.3537,0.29787 -0.7309,0.56691 -1.1311,0.7988 -0.049,-0.25511 -0.1377,-0.52127 -0.055,-0.77734 z"
       id="path6331" />
    <path
       style="fill:#da7a70;stroke:#da7a70;stroke-width:0.04655406"
       inkscape:connector-curvature="0"
       d="m 995.23935,120.19936 c 0.75123,0.0168 1.50438,-0.0884 2.25483,-0.0112 1.30801,0.11082 2.62442,0.11258 3.93062,0.25511 1.6635,0.0735 3.3281,0.23733 4.9945,0.13404 1.9439,-0.13404 3.925,-0.38723 5.8493,0.0576 1.1963,0.30636 2.388,0.76998 3.3496,1.56397 0.5364,0.53248 1.1665,0.96071 1.6767,1.52298 1.2942,1.20845 2.2306,2.73239 3.0769,4.27218 1.4802,2.77242 2.4233,5.79243 3.1699,8.8339 0.364,1.63108 0.7009,3.26951 0.9328,4.92477 0.1126,0.81178 0.2765,1.62082 0.2746,2.44477 -0.072,-0.39284 -0.1406,-0.78663 -0.1842,-1.18235 -0.4199,-3.42229 -1.1695,-6.80263 -2.2149,-10.08703 -0.5307,-1.40303 -0.9999,-2.83472 -1.698,-4.16601 -1.145,-2.34611 -2.6692,-4.56732 -4.7628,-6.16204 -0.7439,-0.61816 -1.6302,-1.02317 -2.5071,-1.40864 -0.7783,-0.26808 -1.5771,-0.49997 -2.3972,-0.59029 -1.4113,-0.10153 -2.8283,-0.009 -4.235,0.12107 -2.0966,0.18624 -4.1903,-0.10249 -6.2841,-0.176 -1.73914,-0.16351 -3.48647,-0.20355 -5.22645,-0.34687 z"
       id="path6333" />
    <path
       style="fill:#debfad;stroke:#debfad;stroke-width:0.02706445"
       inkscape:connector-curvature="0"
       d="m 1053.0595,121.54458 c 0.6042,-0.0373 1.1953,-0.25223 1.8061,-0.20483 0.09,0.86206 0.039,1.74734 -0.161,2.59275 -0.068,0.27737 -0.1546,0.61544 0.077,0.84716 0.4096,0.49341 0.9123,0.92916 1.1833,1.5249 0.099,0.22709 0.1806,0.54641 -0.069,0.7104 -0.445,0.31933 -1.0269,0.14237 -1.5249,0.0874 -0.064,0.28201 -0.1247,0.56515 -0.1824,0.85085 -1.039,0.009 -2.0788,0.0103 -3.1179,-0.003 -0.1982,-0.65547 -0.3025,-1.33128 -0.4468,-1.9978 -0.06,-0.4878 -0.6051,-0.60423 -0.9523,-0.83788 0.2522,0.0828 0.5129,0.14701 0.7792,0.176 -0.016,-0.67212 -0.2681,-1.30806 -0.3369,-1.97362 -0.057,-0.58084 -0.2468,-1.146 -0.2542,-1.72876 0.041,-0.25607 0.3491,-0.18241 0.5278,-0.14333 0.8711,0.22324 1.7815,0.1563 2.6716,0.0994 m 1.4672,4.64916 c -0.028,0.23653 -0.08,0.48219 -0.011,0.71872 0.3511,0.15086 0.7737,0.15919 1.1433,0.0615 0.2886,-0.0894 0.271,-0.47852 0.1257,-0.6843 -0.2979,-0.47387 -0.6283,-0.94213 -1.0724,-1.28933 -0.1695,0.37699 -0.1146,0.79593 -0.1853,1.1934 z"
       id="path6335" />
    <path
       style="fill:#c88c73;stroke:#c88c73;stroke-width:0.04655406"
       inkscape:connector-curvature="0"
       d="m 1015.6178,122.20117 c 0.1462,0.082 0.2968,0.15822 0.4441,0.24583 0.376,0.23188 0.6654,0.57251 0.9886,0.87038 1.1535,0.9748 2.0174,2.24091 2.7985,3.5219 1.7307,2.83936 2.8115,6.02048 3.6253,9.22866 0.3117,1.1516 0.5324,2.3237 0.767,3.49212 0.3557,1.99412 0.6806,3.99577 0.8575,6.01503 0.027,0.33694 0.066,0.67213 0.1052,1.00923 0.076,0.67966 0.1015,1.36476 0.1304,2.04905 0.02,0.75044 0.1443,1.49608 0.1228,2.24828 -0.019,2.40649 0.133,4.84566 -0.3762,7.215 -0.3045,1.22606 -1.052,2.30224 -1.9848,3.13835 -0.8221,0.86014 -1.8751,1.4429 -2.9187,1.99042 -0.6294,0.33151 -1.3108,0.54738 -1.9467,0.86399 -0.058,-0.0225 -0.1761,-0.0661 -0.2337,-0.0884 0.7718,-0.33983 1.5622,-0.64236 2.3125,-1.02959 0.8389,-0.45528 1.6543,-0.96535 2.388,-1.57709 1.1869,-1.02027 2.1616,-2.40377 2.3395,-3.99193 0.2141,-1.32471 0.1453,-2.66912 0.1694,-4.00409 -0.01,-1.49143 0,-2.98286 -0.039,-4.47236 -0.1006,-0.91331 -0.057,-1.8359 -0.1926,-2.7436 -0.083,-0.66092 -0.1387,-1.32296 -0.2263,-1.98195 0,-0.82395 -0.1619,-1.63299 -0.2747,-2.44477 -0.2317,-1.65526 -0.5688,-3.29386 -0.9328,-4.92477 -0.7466,-3.04147 -1.6897,-6.06147 -3.1699,-8.8339 -0.8463,-1.53979 -1.7827,-3.06389 -3.0769,-4.27218 -0.5101,-0.56291 -1.1404,-0.99114 -1.6765,-1.52362 z"
       id="path6337" />
    <path
       style="fill:#debfac;stroke:#debfac;stroke-width:0.04655406"
       inkscape:connector-curvature="0"
       d="m 925.08315,125.94856 c 0.5232,-0.11259 0.76243,-0.64603 0.9905,-1.07249 0.0159,0.39844 -0.15088,0.79976 -0.47581,1.03981 -0.35742,0.29051 -0.84621,0.23734 -1.26611,0.35377 -0.25975,0.11082 -0.45624,0.32589 -0.69455,0.47386 -0.70845,0.45434 -1.60768,0.52047 -2.41033,0.31276 -0.47192,-0.17679 -0.89648,-0.48972 -1.41041,-0.53616 0.0457,-0.0149 0.13694,-0.0427 0.18338,-0.0568 0.095,-0.11915 0.13131,-0.32958 0.3203,-0.31468 1.58576,-0.10986 3.19535,0.1406 4.76303,-0.20002 z"
       id="path6339" />
    <path
       style="fill:#fdc896;stroke:#fdc896;stroke-width:0.04655406"
       inkscape:connector-curvature="0"
       d="m 1054.5329,126.18877 c 0.071,-0.39748 0.016,-0.81641 0.1853,-1.19356 0.444,0.3472 0.7746,0.81546 1.0725,1.28933 0.1452,0.20579 0.1628,0.59494 -0.1258,0.6843 -0.3696,0.0977 -0.7922,0.0894 -1.1432,-0.0615 -0.069,-0.23621 -0.017,-0.48203 0.011,-0.71856 z"
       id="path6341" />
    <path
       style="fill:#efbb8f;stroke:#efbb8f;stroke-width:0.04655406"
       inkscape:connector-curvature="0"
       d="m 978.4994,162.41349 c 0.053,0.014 0.16111,0.041 0.21412,0.0549 0.36769,0.15357 0.74195,0.28859 1.11524,0.4311 -0.0512,0.14703 -0.0866,0.30076 -0.11546,0.45707 -0.0176,5.12784 0.0158,10.25838 -0.0168,15.38703 -0.77542,-0.31565 -1.4682,-0.79318 -2.22601,-1.14426 -0.64602,-0.36496 -1.31366,-0.68893 -1.98948,-0.99241 -1.28563,-0.57537 -2.53685,-1.22796 -3.85516,-1.72794 -3.45481,-1.42257 -7.07439,-2.59932 -10.82706,-2.83105 -0.71407,-0.0689 -1.42722,0.0318 -2.13841,0.0801 -1.4392,0.12281 -2.85153,0.60231 -4.03291,1.4392 -2.3684,1.53244 -4.31591,3.67263 -5.69747,6.12666 -0.0828,0.0987 -0.13132,0.29051 -0.29147,0.28204 -0.58102,0.0225 -1.18411,-0.0355 -1.73629,0.18703 -0.0466,0.0307 -0.13868,0.0931 -0.18434,0.12382 0.0225,-0.0689 0.0689,-0.20581 0.0922,-0.27465 0.4385,-1.20382 1.13864,-2.28463 1.80883,-3.36819 0.6499,-0.82106 1.29687,-1.64597 2.03146,-2.39447 1.08736,-1.04832 2.27628,-1.99782 3.58243,-2.75851 1.43843,-0.76901 3.08806,-1.02972 4.70328,-1.03053 2.84787,0.0141 5.63887,0.72531 8.32385,1.62275 2.88883,0.98218 5.68641,2.21946 8.40663,3.59733 0.96167,0.45528 1.87033,1.01467 2.83761,1.45972 0.0446,-1.36763 0.005,-2.73703 0.0186,-4.10563 -0.009,-3.54016 0.0288,-7.08159 -0.0234,-10.62112 z"
       id="path6343" />
    <path
       style="fill:#fcc896;stroke:#fcc896;stroke-width:0.04655406"
       inkscape:connector-curvature="0"
       d="m 979.7133,163.35836 c 0.0288,-0.15645 0.0642,-0.31003 0.11546,-0.45705 0.90114,0.34814 1.80243,0.69629 2.70629,1.04077 1.59103,0.57444 3.23877,0.97464 4.89592,1.30711 1.23362,0.23461 2.47266,0.46169 3.72291,0.58084 0.0136,0.19457 0.0278,0.3938 0.0464,0.59303 0.18802,1.33029 0.29687,2.67186 0.39473,4.01242 0.21513,1.82004 0.16755,3.6577 0.17775,5.48801 0.0157,1.42353 -0.12197,2.84225 -0.27925,4.25631 -0.23189,1.55004 -0.56513,3.1057 -1.23826,4.53019 -0.50557,1.06222 -1.22606,2.07416 -2.25661,2.68017 -0.47847,0.28585 -1.05851,0.28023 -1.59758,0.26633 -1.95969,-0.0921 -3.87006,-0.58006 -5.76921,-1.03439 -0.54642,-0.12381 -0.98681,-0.48411 -1.45972,-0.76054 -4.04782,-2.46604 -8.26699,-4.6706 -12.67882,-6.41347 -1.75389,-0.67307 -3.53489,-1.30422 -5.37732,-1.69256 -0.90772,-0.17871 -1.84521,-0.35007 -2.77053,-0.20019 -0.58372,0.0922 -1.05568,0.47388 -1.51561,0.81641 -1.77246,1.3369 -3.09735,3.23509 -3.7807,5.34371 -0.11449,0.38164 -0.26071,0.7615 -0.29609,1.16185 0.0222,0.41702 0.21139,0.8025 0.30156,1.20751 0.37617,1.44944 0.53248,2.94747 0.55393,4.44257 l 0.0122,0.19361 c -2.00244,-0.4971 -4.07856,-0.54002 -6.12566,-0.68047 -0.49248,-0.009 -0.99146,0.0103 -1.46999,-0.12665 -0.004,-1.65157 0.31372,-3.29369 0.8137,-4.8644 0.37233,-1.04447 0.84155,-2.06666 1.51658,-2.95386 0.38819,-0.54098 0.88529,-0.9878 1.36105,-1.44867 -0.31373,-0.20019 -0.64058,-0.40309 -1.01564,-0.4561 -0.59588,-0.0959 -1.19997,-0.0225 -1.79858,-0.0263 0.55203,-0.22245 1.15531,-0.16481 1.73629,-0.18706 0.16015,0.008 0.20851,-0.18337 0.29147,-0.28201 1.38156,-2.45407 3.3291,-4.59441 5.69747,-6.12666 1.18138,-0.83692 2.5937,-1.31639 4.03291,-1.4392 0.71122,-0.0484 1.42434,-0.14895 2.13841,-0.0801 3.75267,0.23188 7.37229,1.40848 10.82708,2.83105 1.31831,0.49994 2.56952,1.15254 3.85516,1.72794 0.67581,0.30348 1.34346,0.62745 1.98948,0.99241 0.7578,0.35104 1.45043,0.82862 2.22601,1.14422 0.0325,-5.12861 -0.001,-10.25915 0.0166,-15.38699 z"
       id="path6345" />
    <path
       style="fill:#fcc896;stroke:#fcc896;stroke-width:0.04655406"
       inkscape:connector-curvature="0"
       d="m 1008.155,166.12885 c 3.1112,-0.364 6.2356,-0.84716 9.2054,-1.87592 0.081,0.22899 0.1592,0.4609 0.2281,0.69725 0.5781,2.19527 1.1032,4.41377 1.3451,6.675 0.1267,1.33402 0.1966,2.69891 -0.089,4.019 -0.1219,0.61447 -0.687,0.97094 -1.1218,1.36204 -0.6656,0.50557 -1.2241,1.12837 -1.8368,1.69242 -2.8506,2.86642 -5.6147,5.8222 -8.1899,8.93911 -2.1672,2.61514 -4.246,5.31391 -6.0455,8.19811 -0.5186,0.87423 -1.0818,1.73068 -1.4785,2.6709 -0.40132,0.85086 -0.783,1.72701 -0.93001,2.66353 -0.10792,0.61079 0.12283,1.20556 0.2774,1.78754 0.1582,0.52127 0.28488,1.05472 0.47854,1.56686 0.12937,0.35103 0.52217,0.4748 0.80437,0.67773 1.9607,1.26049 3.7295,2.82173 5.2358,4.59984 0.023,0.0277 0.068,0.0847 0.091,0.11353 -1.0428,0.20851 -1.9346,0.81834 -2.8301,1.35739 -0.6572,0.38353 -1.2856,0.81367 -1.9085,1.25121 -0.5669,0.41991 -1.1794,0.77637 -1.71849,1.23535 -0.61449,-0.30906 -1.08369,-0.82298 -1.59376,-1.2698 -1.28662,-1.1748 -2.41959,-2.51459 -3.39422,-3.95668 -0.42826,-0.62279 -0.71878,-1.32378 -1.05666,-1.99508 -0.22162,-0.48508 -0.40964,-1.01101 -0.36306,-1.551 0.0542,-0.56131 -0.0214,-1.12085 -0.0278,-1.68039 0.19922,-0.12847 0.41991,-0.22533 0.60058,-0.3789 0.0837,-0.6201 -0.10428,-1.23824 -0.0663,-1.85915 0.11448,-2.2148 0.55201,-4.41373 1.29411,-6.50283 0.53346,-1.71578 1.22977,-3.37472 1.98114,-5.00484 0.70194,-1.6069 1.55852,-3.13931 2.39164,-4.67992 1.83682,-3.23331 3.86632,-6.36511 6.16402,-9.29109 0.8918,-1.1199 1.7827,-2.2446 2.79,-3.26393 0.1982,-0.21044 0.4282,-0.40597 0.5446,-0.67581 -0.094,-0.45336 -0.3315,-0.85934 -0.4878,-1.29029 -0.5205,-1.34441 -1.1889,-2.62812 -1.6655,-3.98825 0.4641,-0.0337 0.9239,-0.11257 1.3718,-0.24293 z"
       id="path6347" />
    <path
       style="fill:#c59179;stroke:#c59179;stroke-width:0.04655406"
       inkscape:connector-curvature="0"
       d="m 991.15402,165.82459 c 1.11621,0.0466 2.21945,0.25317 3.33567,0.29883 1.03903,0.0791 2.07693,0.18626 3.11961,0.17502 1.72236,0.15087 3.4549,0.0698 5.1818,0.0828 0.7327,0.0203 1.4588,-0.10522 2.1914,-0.0791 0.023,0.0606 0.069,0.1816 0.091,0.24197 -0.6367,-0.0549 -1.2736,0.03 -1.9103,0.0251 -1.7083,0.006 -3.41849,0.0307 -5.12595,-0.0185 -0.89845,-0.0996 -1.80325,-0.053 -2.70163,-0.1443 -0.89188,-0.0652 -1.78277,-0.14987 -2.67281,-0.24023 -0.46,-0.0456 -0.92356,-0.14156 -1.38527,-0.0744 -0.0278,0.10521 -0.0542,0.21412 -0.0772,0.32589 -0.0186,-0.1992 -0.0328,-0.39843 -0.0464,-0.59301 z"
       id="path6349" />
    <path
       style="fill:#f0bb8f;stroke:#f0bb8f;stroke-width:0.04655406"
       inkscape:connector-curvature="0"
       d="m 1004.9841,166.30502 c 1.0633,0.041 2.1152,-0.14699 3.1756,-0.18799 -0.4478,0.13035 -0.9077,0.20947 -1.3723,0.24293 0.4765,1.36008 1.145,2.64397 1.6654,3.98824 0.1565,0.43111 0.3938,0.83692 0.4879,1.29029 -0.1164,0.26999 -0.3464,0.46552 -0.5447,0.67581 -1.0073,1.01929 -1.8982,2.14399 -2.79,3.26389 -2.2976,2.92602 -4.3271,6.05782 -6.16399,9.29114 -0.83326,1.54075 -1.6897,3.07316 -2.39164,4.67991 -0.75123,1.63008 -1.44768,3.28903 -1.98114,5.00484 -0.74196,2.08906 -1.17942,4.28804 -1.29411,6.50283 -0.0378,0.62087 0.14993,1.23919 0.0663,1.85911 -0.1806,0.15357 -0.40129,0.25047 -0.60051,0.3789 0,0.0122 -0.008,0.0355 -0.01,0.0474 -0.081,0 -0.24202,0 -0.32205,0.004 -0.18995,0.22903 -0.38261,0.45706 -0.54738,0.70657 -0.0128,-0.0549 -0.0378,-0.16478 -0.0513,-0.21875 -0.50094,-2.07612 -0.27561,-4.24145 0.16206,-6.30633 1.011,-4.49385 3.01633,-8.68787 5.2116,-12.71053 0.10613,-0.18529 0.22062,-0.36404 0.33146,-0.54468 2.1374,-3.71551 4.5627,-7.27088 7.3202,-10.55433 0.6014,-0.71214 1.2652,-1.36666 1.8816,-2.06395 -0.6973,-1.7092 -1.4495,-3.39521 -2.1413,-5.1054 -0.022,-0.0603 -0.069,-0.18145 -0.091,-0.24183 z"
       id="path6351" />
    <path
       style="fill:#a69d68;stroke:#a69d68;stroke-width:0.04655406"
       inkscape:connector-curvature="0"
       d="m 944.16759,182.47962 c 0.62009,-1.05663 1.59199,-1.8554 2.64301,-2.45868 -0.0232,0.0688 -0.0698,0.20577 -0.0922,0.27465 -0.46634,0.33791 -0.99704,0.59492 -1.38523,1.03054 -0.86576,0.82856 -1.44212,1.90284 -1.89644,2.99947 -0.91508,2.32564 -1.20463,4.85786 -1.09394,7.34265 0.13963,2.46141 0.67773,4.96946 1.99508,7.08466 0.65163,0.99434 1.51288,1.94942 2.69041,2.2966 0.88159,0.29052 1.85911,0.12012 2.6496,-0.34252 0.92532,-0.5344 1.59296,-1.40575 2.12544,-2.31155 1.15431,-2.03046 1.64309,-4.37369 1.77441,-6.6862 0.24119,-0.13209 0.48412,-0.26167 0.72801,-0.38818 -0.0624,-0.1592 -0.12939,-0.32301 -0.28296,-0.40966 -0.1331,-0.0669 -0.26715,-0.12666 -0.40117,-0.18334 l -0.0122,-0.19361 c 0.2224,0.0977 0.45336,0.18703 0.65255,0.33229 0.19461,0.11353 0.19187,0.40404 0.0689,0.57155 -0.19265,0.18722 -0.4524,0.29321 -0.63769,0.49163 -0.14526,0.38822 -0.0718,0.8174 -0.12939,1.22414 -0.11642,0.81741 -0.22996,1.64036 -0.4822,2.42989 -0.14622,0.57348 -0.38449,1.11716 -0.58084,1.67481 -0.17136,0.50173 -0.48042,0.93845 -0.72339,1.40767 -0.28955,0.5456 -0.67581,1.04093 -1.14888,1.44209 -0.4077,0.33887 -0.77363,0.75508 -1.27905,0.95142 -0.70287,0.27738 -1.49706,0.43111 -2.23531,0.20385 -0.50926,-0.15915 -1.00925,-0.37794 -1.43747,-0.69821 -1.37786,-1.1609 -2.25194,-2.80976 -2.76024,-4.5161 -0.36305,-1.23997 -0.65726,-2.50978 -0.74018,-3.80199 -0.0922,-0.83496 0.009,-1.6767 -0.082,-2.51074 0.11354,-0.69071 0.10887,-1.39551 0.26249,-2.07882 0.0717,-0.33983 0.14059,-0.67965 0.20481,-1.01852 0.29339,-1.46453 0.82875,-2.88325 1.60608,-4.15979 z"
       id="path6353" />
    <path
       style="fill:#f8ce20;stroke:#f8ce20;stroke-width:0.04655406"
       inkscape:connector-curvature="0"
       d="m 945.33343,181.32661 c 0.38819,-0.43577 0.91893,-0.69264 1.38526,-1.03054 0.0457,-0.0307 0.13772,-0.0931 0.18434,-0.12381 0.59861,0.004 1.20285,-0.0698 1.79858,0.0263 0.37521,0.053 0.70192,0.25609 1.01565,0.45609 -0.47581,0.46091 -0.97291,0.90773 -1.36109,1.44867 -0.675,0.8872 -1.14422,1.90942 -1.51658,2.9539 -0.49995,1.57052 -0.81545,3.2128 -0.81367,4.8644 0.4785,0.13675 0.97752,0.11719 1.46996,0.12665 2.04713,0.1406 4.12325,0.18337 6.12569,0.68047 0.13402,0.0568 0.26807,0.11642 0.40117,0.18333 0.0661,0.10892 0.13228,0.22168 0.19826,0.33695 -0.41336,0.30171 -0.87234,0.55203 -1.38253,0.64235 -1.36204,0.26633 -2.74457,0.4236 -4.12887,0.51392 -0.80617,0.083 -1.62354,0.054 -2.42331,0.19361 -0.0299,0.0196 -0.0893,0.0586 -0.11915,0.0791 -0.0857,0.38352 0.0111,0.77733 0.0698,1.16089 0.39843,2.17091 1.13575,4.36522 2.64671,6.02606 0.1965,0.21509 0.42549,0.40039 0.65818,0.57814 0.0447,0.0847 0.0894,0.17328 0.13597,0.26441 -0.7903,0.46264 -1.76783,0.63303 -2.64959,0.34253 -1.17772,-0.34719 -2.03879,-1.30246 -2.69041,-2.29665 -1.31736,-2.11516 -1.85545,-4.6232 -1.99509,-7.08463 -0.11084,-2.48482 0.17871,-5.017 1.09394,-7.34263 0.45466,-1.09649 1.03102,-2.17076 1.89675,-2.99933 z"
       id="path6355" />
    <path
       style="fill:#fcc896;stroke:#fcc896;stroke-width:0.04655406"
       inkscape:connector-curvature="0"
       d="m 954.02288,190.90326 c 0.15358,0.0866 0.22068,0.25044 0.28297,0.40963 -0.24389,0.1267 -0.48682,0.25609 -0.72802,0.38818 -0.13131,2.31251 -0.62005,4.65574 -1.7744,6.6862 -0.53248,0.90581 -1.19993,1.77714 -2.12544,2.31155 -0.0466,-0.0913 -0.0913,-0.17968 -0.13594,-0.26441 -0.23269,-0.17775 -0.46171,-0.36304 -0.65821,-0.5781 -1.51096,-1.66088 -2.24825,-3.85519 -2.64671,-6.0261 -0.0586,-0.38356 -0.1555,-0.77733 -0.0698,-1.16089 0.0299,-0.0203 0.0893,-0.0596 0.11911,-0.0791 0.79977,-0.13963 1.61715,-0.1108 2.42335,-0.19361 1.38426,-0.0903 2.76679,-0.24758 4.12884,-0.51388 0.51022,-0.0904 0.9692,-0.34064 1.38252,-0.64236 -0.066,-0.11545 -0.13213,-0.22806 -0.19827,-0.33709 z"
       id="path6357" />
    <path
       style="fill:#f8ce20;stroke:#f8ce20;stroke-width:0.04655406"
       inkscape:connector-curvature="0"
       d="m 993.22953,203.34649 c 0,-0.0118 0.009,-0.0355 0.01,-0.0474 0.007,0.55954 0.082,1.11908 0.0278,1.68039 -0.0464,0.53999 0.14152,1.06592 0.36299,1.551 0.33796,0.67116 0.62848,1.37229 1.05666,1.99508 0.97463,1.44209 2.10768,2.7817 3.3943,3.95667 0.51021,0.44683 0.97941,0.96075 1.59376,1.26981 0.53906,-0.45898 1.15156,-0.81544 1.71856,-1.23535 0.6227,-0.43754 1.2511,-0.86768 1.9083,-1.25121 0.8956,-0.53906 1.7875,-1.14888 2.8301,-1.35739 -0.023,-0.0288 -0.069,-0.0857 -0.091,-0.11353 0.3965,-0.0456 0.7988,-0.041 1.1897,0.0512 0.021,0.36497 -0.01,0.74017 -0.2207,1.0539 l -0.043,-0.0959 c -0.1862,0.52223 -0.635,0.86768 -1.0139,1.24562 -0.3901,0.35185 -0.7875,0.69456 -1.1823,1.03982 -0.9458,0.78757 -2.0183,1.4104 -2.9418,2.22311 0.7921,0.61255 1.7362,0.9729 2.6318,1.40401 1.2922,0.50172 2.6849,0.794 4.0748,0.65163 0,0.082 0.01,0.24582 0.01,0.32763 -0.2188,0.20115 -0.459,0.39203 -0.7439,0.49166 -0.6144,0.027 -1.2289,0.16382 -1.8442,0.0642 -1.7492,-0.23927 -3.3794,-0.99434 -4.8847,-1.88794 -2.84783,-1.7661 -5.3884,-4.07491 -7.25135,-6.8715 -0.82491,-1.27076 -1.50538,-2.69796 -1.56494,-4.23583 0,-0.6201 0.20022,-1.30884 0.75879,-1.65059 -0.0725,0.66009 -0.0193,1.3247 0.16477,1.96432 0.0542,-0.74132 0.008,-1.48423 0.0513,-2.22345 z"
       id="path6359" />
    <path
       style="fill:#f7c647;stroke:#f7c647;stroke-width:0.04655406"
       inkscape:connector-curvature="0"
       d="m 992.35989,204.05114 c 0.16484,-0.24951 0.3575,-0.47758 0.54738,-0.70657 0.0801,0 0.24123,-0.004 0.32204,-0.004 -0.0435,0.73921 0,1.48212 -0.0513,2.22311 -0.18431,-0.63962 -0.23731,-1.30423 -0.16477,-1.96433 -0.55857,0.34175 -0.75508,1.03054 -0.75872,1.6506 0.0592,1.53806 0.74017,2.9651 1.56487,4.23583 1.86281,2.79663 4.40353,5.10544 7.25141,6.87149 1.5054,0.89379 3.1354,1.64871 4.8847,1.88795 0.6155,0.0996 1.2297,-0.0373 1.8442,-0.0642 -0.8657,0.37155 -1.8386,0.25321 -2.7323,0.0586 -1.7,-0.39846 -3.2649,-1.22703 -4.7292,-2.15797 -2.39632,-1.57806 -4.53759,-3.5629 -6.22265,-5.88931 -0.62184,-0.87038 -1.17407,-1.79666 -1.56865,-2.79293 -0.4085,-1.04895 -0.73247,-2.28911 -0.18703,-3.35036 z"
       id="path6361" />
    <path
       style="fill:#988c5b;stroke:#988c5b;stroke-width:0.04655406"
       inkscape:connector-curvature="0"
       d="m 992.30868,203.84293 c 0.0128,0.054 0.0378,0.16385 0.0514,0.21875 -0.54559,1.06129 -0.22162,2.30131 0.18702,3.35054 0.3948,0.99613 0.94681,1.92241 1.56865,2.79293 1.68506,2.32646 3.82634,4.31126 6.22265,5.88932 1.4643,0.93094 3.0292,1.75951 4.7292,2.15797 0.8937,0.19458 1.8666,0.31277 2.7323,-0.0586 0.2849,-0.0996 0.5252,-0.29048 0.7439,-0.49163 0.107,-0.10699 0.2114,-0.21317 0.3157,-0.31838 -0.1433,0.58567 -0.7261,0.90114 -1.2596,1.06322 -1.0929,0.33421 -2.2455,0.0549 -3.3068,-0.25976 -0.7541,-0.21413 -1.4626,-0.5493 -2.158,-0.90402 -1.3686,-0.63962 -2.60004,-1.53049 -3.79172,-2.44926 -1.49604,-1.19627 -2.85149,-2.57048 -4.01707,-4.09072 -1.00073,-1.26434 -1.82001,-2.69892 -2.24456,-4.26098 -0.17311,-0.72801 -0.14529,-1.48582 0.007,-2.21383 0.0685,-0.14621 0.14522,-0.28859 0.22147,-0.42552 z"
       id="path6363" />
    <path
       style="fill:#fcc896;stroke:#fcc896;stroke-width:0.04655406"
       inkscape:connector-curvature="0"
       d="m 1005.961,212.04234 c 0.3789,-0.37794 0.8276,-0.72335 1.0139,-1.24559 l 0.043,0.0959 c 0.1965,0.45899 0.5315,0.83885 0.781,1.26981 0.5036,0.85086 0.9477,1.74927 1.1953,2.71093 0.2085,0.81929 0.2161,1.71115 -0.1276,2.4968 -0.1043,0.10521 -0.2085,0.21139 -0.3156,0.31839 0,-0.0818 -0.01,-0.24567 -0.01,-0.32767 -1.39,0.14237 -2.7827,-0.14991 -4.0749,-0.65163 -0.8956,-0.43111 -1.8397,-0.79127 -2.6318,-1.40397 0.9235,-0.81275 1.9959,-1.43554 2.9418,-2.22315 0.3949,-0.34526 0.7924,-0.68798 1.1825,-1.03982 z"
       id="path6365" />
  </g>
</svg>
