<?xml version="1.0" encoding="UTF-8" standalone="no"?>
<!-- Created with Inkscape (http://www.inkscape.org/) -->

<svg
   xmlns:dc="http://purl.org/dc/elements/1.1/"
   xmlns:cc="http://creativecommons.org/ns#"
   xmlns:rdf="http://www.w3.org/1999/02/22-rdf-syntax-ns#"
   xmlns:svg="http://www.w3.org/2000/svg"
   xmlns="http://www.w3.org/2000/svg"
   xmlns:xlink="http://www.w3.org/1999/xlink"
   xmlns:sodipodi="http://sodipodi.sourceforge.net/DTD/sodipodi-0.dtd"
   xmlns:inkscape="http://www.inkscape.org/namespaces/inkscape"
   width="1080"
   height="1080"
   viewBox="0 0 1080 1080"
   id="svg2"
   version="1.1"
   inkscape:version="0.91 r13725"
   sodipodi:docname="pula-corda.svg"
   inkscape:export-filename="/home/diana/Ãrea de Trabalho/parte4.png"
   inkscape:export-xdpi="300"
   inkscape:export-ydpi="300">
  <defs
     id="defs4">
    <clipPath
       id="w">
      <path
         id="path4797"
         d="m-1433.2-115.47c-11.656 0-21.062 5.7521-21.062 12.875v830.03c73.682-9.9072 153.85-15.062 237.16-15.062 343.82-1e-5 484.31 44.117 822.84 235.72 342.86 194.05 775.27 461.42-891.41 464.28-60.105 0.1033-116.48-9.3981-168.59-25.937v150.97c0 7.1229 9.4069 12.844 21.062 12.844h2229.3c11.656 0 21.031-5.7209 21.031-12.844v-1640c0-7.1229-9.3758-12.875-21.031-12.875h-2229.3z" />
    </clipPath>
    <clipPath
       id="v">
      <path
         id="path4800"
         d="m-458.95-138.33c-11.656 0-21.062 5.7521-21.062 12.875v1640c0 7.1229 9.4069 12.844 21.062 12.844h2229.3c11.656 0 21.031-5.7209 21.031-12.844v-1640c0-7.1229-9.3757-12.875-21.031-12.875h-2229.3z" />
    </clipPath>
    <clipPath
       id="u">
      <path
         id="path4803"
         d="m66.775-44.781c-48.512 0-90.277 11.93-108.88 29.029-4.2689-0.29482-8.6095-0.45761-13.02-0.45757-57.892 0-104.88 26.516-104.88 59.185 0 28.592 35.996 52.465 83.786 57.98 14.848 30.919 81.281 54.263 160.92 54.263 90.548 0 164.04-30.168 164.04-67.344l-0.1177-1.0826c29.334-9.232 48.521-24.502 48.521-41.775l-0.4216-4.3861c-5.1006-26.509-53.967-46.621-113.33-46.641-11.48-22.433-59.406-38.772-116.62-38.772z" />
    </clipPath>
    <clipPath
       id="t">
      <path
         id="path4806"
         d="m1101.1-136.21c-48.512 0-90.277 11.93-108.88 29.029-4.2689-0.29482-8.6095-0.45761-13.02-0.45757-57.892 0-104.88 26.516-104.88 59.185 0 28.592 35.996 52.465 83.786 57.98 14.848 30.919 81.281 54.263 160.92 54.263 90.548 0 164.04-30.168 164.04-67.344l-0.1177-1.0826c29.334-9.232 48.521-24.502 48.521-41.775l-0.4216-4.3861c-5.1006-26.509-53.967-46.621-113.33-46.641-11.48-22.433-59.406-38.772-116.62-38.772z" />
    </clipPath>
    <clipPath
       id="s">
      <path
         id="path4809"
         d="m-755.82-243.84h3744.8a35.341 21.597 0 0 1 35.341 21.597v1679.8a35.341 21.597 0 0 1 -35.341 21.597h-3744.8a35.341 21.597 0 0 1 -35.341 -21.597v-1679.8a35.341 21.597 0 0 1 35.341 -21.597" />
    </clipPath>
    <clipPath
       id="r">
      <path
         id="path4812"
         d="m-749.26-231.6h3532.9a33.341 20.375 0 0 1 33.341 20.375v1584.7a33.341 20.375 0 0 1 -33.341 20.375h-3532.9a33.341 20.375 0 0 1 -33.341 -20.375v-1584.7a33.341 20.375 0 0 1 33.341 -20.375" />
    </clipPath>
    <filter
       height="2.2602"
       width="1.3823"
       y="-.63012"
       x="-.19116"
       id="q">
      <feGaussianBlur
         id="feGaussianBlur4815"
         stdDeviation="40.50794" />
    </filter>
    <filter
       height="1.5287"
       width="1.4963"
       y="-.26435"
       x="-.24816"
       id="p">
      <feGaussianBlur
         id="feGaussianBlur4818"
         stdDeviation="57.90476" />
    </filter>
    <filter
       height="1.5958"
       width="1.2607"
       y="-.29791"
       x="-.13033"
       id="o">
      <feGaussianBlur
         id="feGaussianBlur4821"
         stdDeviation="24.8259" />
    </filter>
    <filter
       height="1.4376"
       width="1.1914"
       y="-.21881"
       x="-.09573"
       id="n">
      <feGaussianBlur
         id="feGaussianBlur4824"
         stdDeviation="18.23404" />
    </filter>
    <filter
       height="1.4381"
       width="1.1917"
       y="-.21905"
       x="-.09583"
       id="m">
      <feGaussianBlur
         id="feGaussianBlur4827"
         stdDeviation="18.25434" />
    </filter>
    <linearGradient
       id="a">
      <stop
         id="stop4830"
         offset="0"
         stop-color="#69d007" />
      <stop
         id="stop4832"
         offset="1"
         stop-opacity="0"
         stop-color="#4e9a06" />
    </linearGradient>
    <linearGradient
       id="b">
      <stop
         id="stop4835"
         offset="0"
         stop-color="#458905" />
      <stop
         id="stop4837"
         offset="1"
         stop-opacity="0"
         stop-color="#4e9a06" />
    </linearGradient>
    <linearGradient
       gradientUnits="userSpaceOnUse"
       y2="824.63"
       y1="-395.47"
       x2="0"
       id="l">
      <stop
         id="stop4840"
         offset="0"
         stop-color="#00acf4" />
      <stop
         id="stop4842"
         offset="1"
         stop-color="#a6e5ff" />
    </linearGradient>
    <linearGradient
       gradientUnits="userSpaceOnUse"
       y2="994.64"
       y1="405.22"
       x2="-248.57"
       x1="-242.86"
       id="k">
      <stop
         id="stop4845"
         offset="0"
         stop-color="#007900" />
      <stop
         id="stop4847"
         offset="1"
         stop-opacity="0"
         stop-color="#008400" />
    </linearGradient>
    <linearGradient
       gradientUnits="userSpaceOnUse"
       y2="1096.6"
       y1="605.09"
       x2="0"
       id="j">
      <stop
         id="stop4850"
         offset="0"
         stop-color="#00a400" />
      <stop
         id="stop4852"
         offset="1"
         stop-opacity="0"
         stop-color="#00a400" />
    </linearGradient>
    <linearGradient
       gradientUnits="userSpaceOnUse"
       y2="1831.1"
       y1="543.41"
       x2="428.52"
       x1="404.28"
       id="i">
      <stop
         id="stop4855"
         offset="0"
         stop-color="#55a800" />
      <stop
         id="stop4857"
         offset="1"
         stop-color="#74e400" />
    </linearGradient>
    <linearGradient
       gradientUnits="userSpaceOnUse"
       x2="-2157.6"
       x1="-2329.5"
       id="d">
      <stop
         id="stop4860"
         offset="0"
         stop-color="#8f5902" />
      <stop
         id="stop4862"
         offset="1"
         stop-color="#724701" />
    </linearGradient>
    <linearGradient
       xlink:href="#b"
       gradientUnits="userSpaceOnUse"
       y2="762.32"
       y1="1025"
       x2="-734.85"
       x1="-664.68"
       id="h" />
    <linearGradient
       xlink:href="#a"
       gradientUnits="userSpaceOnUse"
       y2="463.79"
       y1="223.79"
       x2="-1071.7"
       x1="-1133"
       id="g" />
    <linearGradient
       xlink:href="#a"
       gradientUnits="userSpaceOnUse"
       y2="806.8"
       y1="326.65"
       x2="-1141.5"
       x1="-1521.6"
       id="f" />
    <linearGradient
       xlink:href="#b"
       gradientUnits="userSpaceOnUse"
       y2="651.02"
       y1="990.44"
       x2="-983.91"
       x1="-1381.5"
       id="e" />
    <radialGradient
       gradientUnits="userSpaceOnUse"
       gradientTransform="matrix(1.3897,0.70717,-0.55543,1.0915,234.03,455.12)"
       r="284.2"
       cy="-27.638"
       cx="-640"
       id="c">
      <stop
         id="stop4869"
         offset="0"
         stop-color="#fcaf3e" />
      <stop
         id="stop4871"
         offset="1"
         stop-color="#ffce86" />
    </radialGradient>
  </defs>
  <sodipodi:namedview
     id="base"
     pagecolor="#ffffff"
     bordercolor="#666666"
     borderopacity="1.0"
     inkscape:pageopacity="0.0"
     inkscape:pageshadow="2"
     inkscape:zoom="0.51203704"
     inkscape:cx="813.41772"
     inkscape:cy="540"
     inkscape:document-units="px"
     inkscape:current-layer="layer1"
     showgrid="false"
     units="px"
     inkscape:window-width="1366"
     inkscape:window-height="715"
     inkscape:window-x="0"
     inkscape:window-y="0"
     inkscape:window-maximized="1"
     showguides="false"
     inkscape:guide-bbox="true">
    <sodipodi:guide
       position="389.85757,765.79165"
       orientation="1,0"
       id="guide5380" />
    <sodipodi:guide
       position="719.38003,672.96842"
       orientation="1,0"
       id="guide5382" />
  </sodipodi:namedview>
  <metadata
     id="metadata7">
    <rdf:RDF>
      <cc:Work
         rdf:about="">
        <dc:format>image/svg+xml</dc:format>
        <dc:type
           rdf:resource="http://purl.org/dc/dcmitype/StillImage" />
        <dc:title></dc:title>
      </cc:Work>
    </rdf:RDF>
  </metadata>
  <g
     inkscape:label="Camada 1"
     inkscape:groupmode="layer"
     id="layer1"
     transform="translate(0,27.637808)">
    <g
       id="g5470"
       transform="matrix(0,1,-1,0,1108.8876,-74.317225)">
      <path
         inkscape:connector-curvature="0"
         id="path5270"
         d="M 560.02873,103.10938 A 123.31703,115.45303 0 0 0 436.75334,217.747 l 246.32813,0 0,5.74133 a 123.31703,115.45303 0 0 0 0.26367,-4.92366 123.31703,115.45303 0 0 0 -123.31641,-115.45529 z"
         style="opacity:1;fill:#0000ff;fill-opacity:1;stroke:#000000;stroke-width:7;stroke-miterlimit:4;stroke-dasharray:none;stroke-opacity:1" />
      <g
         style="font-style:normal;font-weight:normal;font-size:62.5px;line-height:125%;font-family:sans-serif;letter-spacing:0px;word-spacing:0px;fill:#000000;fill-opacity:1;stroke:none;stroke-width:1px;stroke-linecap:butt;stroke-linejoin:miter;stroke-opacity:1"
         id="text5280">
        <path
           d="m 550.87189,171.55721 -12.8479,0 0,-8.60596 q 0,-3.75366 -0.42725,-4.66919 -0.39673,-0.94605 -1.80054,-0.94605 -1.58691,0 -2.01416,1.12915 -0.42724,1.12915 -0.42724,4.88282 l 0,22.94922 q 0,3.60107 0.42724,4.6997 0.42725,1.09864 1.92261,1.09864 1.43433,0 1.86157,-1.09864 0.45777,-1.09863 0.45777,-5.15747 l 0,-6.19507 12.8479,0 0,1.92261 q 0,7.65991 -1.09864,10.86426 -1.06811,3.20434 -4.79126,5.61523 -3.69262,2.41089 -9.12475,2.41089 -5.64575,0 -9.30786,-2.04468 -3.66211,-2.04467 -4.8523,-5.64575 -1.19018,-3.63159 -1.19018,-10.89477 l 0,-14.43482 q 0,-5.34057 0.36621,-7.9956 0.36621,-2.68555 2.16675,-5.15747 1.83105,-2.47193 5.0354,-3.87574 3.23486,-1.43432 7.41577,-1.43432 5.67627,0 9.36889,2.19726 3.69263,2.19727 4.8523,5.49317 1.15967,3.26538 1.15967,10.19287 l 0,4.69971 z"
           style="font-style:normal;font-variant:normal;font-weight:normal;font-stretch:condensed;font-family:Impact;-inkscape-font-specification:'Impact Condensed';fill:#ffffff"
           id="path5506" />
        <path
           d="m 583.09845,179.8885 -15.96069,0 0,8.75855 q 0,2.74658 0.39672,3.54004 0.39673,0.79346 1.52588,0.79346 1.40381,0 1.86158,-1.0376 0.48828,-1.06812 0.48828,-4.08936 l 0,-5.34057 11.68823,0 0,2.99072 q 0,3.75366 -0.48828,5.76782 -0.45777,2.01416 -2.19727,4.30298 -1.7395,2.28882 -4.42505,3.44849 -2.65503,1.12915 -6.68335,1.12915 -3.90625,0 -6.89697,-1.12915 -2.99072,-1.12915 -4.66919,-3.08228 -1.64795,-1.98364 -2.28882,-4.3335 -0.64087,-2.38037 -0.64087,-6.89697 l 0,-11.8103 q 0,-5.31006 1.43433,-8.36182 1.43433,-3.08227 4.69971,-4.6997 3.26538,-1.64795 7.50732,-1.64795 5.18799,0 8.54492,1.98364 3.38746,1.95312 4.73023,5.2185 1.37329,3.23487 1.37329,9.12476 l 0,5.37109 z m -12.35962,-6.59179 0,-2.96021 q 0,-3.14331 -0.33569,-4.05884 -0.3357,-0.91552 -1.37329,-0.91552 -1.28174,0 -1.58692,0.79345 -0.30517,0.76294 -0.30517,4.18091 l 0,2.96021 3.60107,0 z m 8.63648,-25.36011 -10.04029,8.27026 -6.19507,0 5.3711,-8.27026 10.86426,0 z"
           style="font-style:normal;font-variant:normal;font-weight:normal;font-stretch:condensed;font-family:Impact;-inkscape-font-specification:'Impact Condensed';fill:#ffffff"
           id="path5508" />
        <path
           d="m 615.38605,158.92293 0,40.49682 -12.54273,0 0.21363,-3.35693 q -1.28174,2.04468 -3.17383,3.08228 -1.86157,1.00708 -4.30298,1.00708 -2.7771,0 -4.60816,-0.97657 -1.83105,-0.97656 -2.71606,-2.59399 -0.85449,-1.61743 -1.06811,-3.35693 -0.21363,-1.77002 -0.21363,-6.98853 l 0,-27.31323 12.3291,0 0,27.55737 q 0,4.73023 0.27466,5.61524 0.30518,0.88501 1.58692,0.88501 1.37329,0 1.61743,-0.91553 0.27466,-0.91553 0.27466,-5.88989 l 0,-27.2522 12.3291,0 z"
           style="font-style:normal;font-variant:normal;font-weight:normal;font-stretch:condensed;font-family:Impact;-inkscape-font-specification:'Impact Condensed';fill:#ffffff"
           id="path5510" />
      </g>
      <path
         style="opacity:1;fill:#ff0000;fill-opacity:1;stroke:#000000;stroke-width:7;stroke-miterlimit:4;stroke-dasharray:none;stroke-opacity:1"
         d="m 391.44672,329.07111 164.5412,0 0,108.56326 -164.5412,0 z"
         id="rect5284" />
      <path
         style="opacity:1;fill:#ff3a67;fill-opacity:1;stroke:#000000;stroke-width:7;stroke-miterlimit:4;stroke-dasharray:none;stroke-opacity:1"
         d="m 555.13977,329.07114 164.5412,0 0,108.56326 -164.5412,0 z"
         id="rect5284-2" />
      <path
         style="opacity:1;fill:#d45500;fill-opacity:1;stroke:#000000;stroke-width:7;stroke-miterlimit:4;stroke-dasharray:none;stroke-opacity:1"
         d="m 480.173,435.54422 164.5412,0 0,108.56326 -164.5412,0 z"
         id="rect5284-8" />
      <path
         style="opacity:1;fill:#441650;fill-opacity:1;stroke:#000000;stroke-width:7;stroke-miterlimit:4;stroke-dasharray:none;stroke-opacity:1"
         d="m 391.26343,541.10876 164.5412,0 0,108.56327 -164.5412,0 z"
         id="rect5284-88" />
      <path
         style="opacity:1;fill:#ffaaaa;fill-opacity:1;stroke:#000000;stroke-width:7;stroke-miterlimit:4;stroke-dasharray:none;stroke-opacity:1"
         d="m 554.95648,541.10876 164.5412,0 0,108.56327 -164.5412,0 z"
         id="rect5284-2-6" />
      <path
         style="opacity:1;fill:#008000;fill-opacity:1;stroke:#000000;stroke-width:7;stroke-miterlimit:4;stroke-dasharray:none;stroke-opacity:1"
         d="m 480.173,654.08246 164.5412,0 0,108.56326 -164.5412,0 z"
         id="rect5284-8-8" />
      <path
         style="opacity:1;fill:#2aff80;fill-opacity:1;stroke:#000000;stroke-width:7;stroke-miterlimit:4;stroke-dasharray:none;stroke-opacity:1"
         d="m 391.26343,759.64703 164.5412,0 0,108.56327 -164.5412,0 z"
         id="rect5284-88-3" />
      <path
         style="opacity:1;fill:#ff0000;fill-opacity:1;stroke:#000000;stroke-width:7;stroke-miterlimit:4;stroke-dasharray:none;stroke-opacity:1"
         d="m 554.95648,759.64703 164.5412,0 0,108.56327 -164.5412,0 z"
         id="rect5284-2-6-8" />
      <path
         style="opacity:1;fill:#00aad4;fill-opacity:1;stroke:#000000;stroke-width:7;stroke-miterlimit:4;stroke-dasharray:none;stroke-opacity:1"
         d="m 480.173,867.81641 164.5412,0 0,108.56326 -164.5412,0 z"
         id="rect5284-8-3" />
      <path
         style="opacity:1;fill:#00ff00;fill-opacity:1;stroke:#000000;stroke-width:7;stroke-miterlimit:4;stroke-dasharray:none;stroke-opacity:1"
         d="m 480.17297,219.71248 164.5412,0 0,108.56326 -164.5412,0 z"
         id="rect5284-8-3-4" />
      <g
         style="font-style:normal;font-weight:normal;font-size:62.5px;line-height:125%;font-family:sans-serif;letter-spacing:0px;word-spacing:0px;fill:#000000;fill-opacity:1;stroke:none;stroke-width:1px;stroke-linecap:butt;stroke-linejoin:miter;stroke-opacity:1"
         id="text5384">
        <path
           d="m 558.28021,247.14954 0,49.40796 -12.3291,0 0,-26.48926 q 0,-5.73731 -0.27466,-6.89698 -0.27466,-1.15966 -1.52588,-1.7395 -1.2207,-0.61035 -5.49316,-0.61035 l -1.2207,0 0,-5.76782 q 8.94165,-1.92261 13.58032,-7.90405 l 7.26318,0 z"
           style="font-style:normal;font-variant:normal;font-weight:normal;font-stretch:condensed;font-family:Impact;-inkscape-font-specification:'Impact Condensed';fill:#ffffff"
           id="path5523" />
        <path
           d="m 592.15472,263.87317 0,16.47949 q 0,5.61524 -0.61035,8.17871 -0.61035,2.56348 -2.53296,4.79126 -1.9226,2.22779 -4.63867,3.20435 -2.71606,0.97656 -6.073,0.97656 -4.42505,0 -7.35473,-1.00708 -2.92969,-1.0376 -4.66919,-3.20435 -1.7395,-2.16674 -2.47193,-4.54711 -0.73242,-2.41089 -0.73242,-7.6294 l 0,-17.24243 q 0,-6.80542 1.15967,-10.19287 1.19019,-3.38745 4.66919,-5.43213 3.50952,-2.04468 8.48389,-2.04468 4.05883,0 7.26318,1.43433 3.20435,1.40381 4.79126,3.44848 1.58691,2.04468 2.13623,4.60816 0.57983,2.56347 0.57983,8.17871 z m -12.3291,-4.15039 q 0,-3.93677 -0.39673,-4.91333 -0.36621,-1.00708 -1.77002,-1.00708 -1.37329,0 -1.83105,1.06811 -0.42725,1.0376 -0.42725,4.8523 l 0,24.10889 q 0,4.30297 0.39673,5.18798 0.42725,0.88501 1.80054,0.88501 1.37329,0 1.80054,-1.03759 0.42724,-1.0376 0.42724,-4.66919 l 0,-24.4751 z"
           style="font-style:normal;font-variant:normal;font-weight:normal;font-stretch:condensed;font-family:Impact;-inkscape-font-specification:'Impact Condensed';fill:#ffffff"
           id="path5525" />
      </g>
      <g
         style="font-style:normal;font-weight:normal;font-size:62.5px;line-height:125%;font-family:sans-serif;letter-spacing:0px;word-spacing:0px;fill:#000000;fill-opacity:1;stroke:none;stroke-width:1px;stroke-linecap:butt;stroke-linejoin:miter;stroke-opacity:1"
         id="text5384-0">
        <path
           d="m 478.43512,379.17761 q 2.71606,1.09864 4.18091,3.2959 1.46484,2.16675 1.46484,10.37598 0,5.98144 -1.15967,8.81958 -1.15966,2.83813 -4.5166,4.66919 -3.35693,1.80053 -9.00268,1.80053 -5.49317,0 -8.69751,-1.7395 -3.20435,-1.7395 -4.60816,-4.60815 -1.37329,-2.86865 -1.37329,-9.552 0,-4.48609 0.67139,-7.78199 0.7019,-3.2959 4.33349,-5.27954 -2.28881,-1.09863 -3.44848,-3.479 -1.12915,-2.41089 -1.12915,-6.10352 0,-6.37817 3.54004,-9.552 3.54004,-3.20434 10.5896,-3.20434 8.14819,0 11.26098,3.38745 3.1128,3.38745 3.1128,9.67407 0,3.9978 -1.0376,5.76782 -1.00708,1.77002 -4.18091,3.50952 z m -6.92749,-10.62011 q 0,-2.50245 -0.45776,-3.2959 -0.42725,-0.82398 -1.67847,-0.82398 -1.2207,0 -1.64795,0.88501 -0.42725,0.85449 -0.42725,3.23487 l 0,3.75366 q 0,2.22778 0.48828,3.08227 0.48829,0.85449 1.64795,0.85449 1.22071,0 1.64795,-0.82397 0.42725,-0.85449 0.42725,-3.479 l 0,-3.38745 z m 0.24414,20.53833 q 0,-2.83814 -0.57983,-3.75367 -0.57984,-0.94604 -1.83106,-0.94604 -1.2207,0 -1.77002,0.91553 -0.5188,0.88501 -0.5188,3.78418 l 0,6.40869 q 0,3.20434 0.57984,4.11987 0.61035,0.91553 1.89209,0.91553 1.31225,0 1.77002,-0.91553 0.45776,-0.94605 0.45776,-4.21143 l 0,-6.31713 z"
           style="font-style:normal;font-variant:normal;font-weight:normal;font-stretch:condensed;font-family:Impact;-inkscape-font-specification:'Impact Condensed';fill:#ffffff"
           id="path5528" />
      </g>
      <g
         style="font-style:normal;font-weight:normal;font-size:62.5px;line-height:125%;font-family:sans-serif;letter-spacing:0px;word-spacing:0px;fill:#000000;fill-opacity:1;stroke:none;stroke-width:1px;stroke-linecap:butt;stroke-linejoin:miter;stroke-opacity:1"
         id="text5384-2">
        <path
           d="m 487.34583,828.42633 0,8.42285 -27.13013,0 0,-7.04956 q 12.05444,-19.71435 14.31274,-24.38354 2.28882,-4.69971 2.28882,-7.32422 0,-2.01416 -0.7019,-2.99072 -0.67139,-1.00708 -2.0752,-1.00708 -1.40381,0 -2.10571,1.09863 -0.67139,1.09863 -0.67139,4.36401 l 0,4.69971 -11.04736,0 0,-1.80054 q 0,-4.15039 0.42724,-6.53076 0.42725,-2.41089 2.10572,-4.73022 1.67846,-2.31934 4.36401,-3.50953 2.68555,-1.19018 6.43921,-1.19018 7.35474,0 11.1084,3.66211 3.78418,3.63159 3.78418,9.21631 0,4.24194 -2.13623,8.97216 -2.10572,4.73023 -12.48169,20.08057 l 13.51929,0 z"
           style="font-style:normal;font-variant:normal;font-weight:normal;font-stretch:condensed;font-family:Impact;-inkscape-font-specification:'Impact Condensed';fill:#ffffff"
           id="path5531" />
      </g>
      <g
         style="font-style:normal;font-weight:normal;font-size:62.5px;line-height:125%;font-family:sans-serif;letter-spacing:0px;word-spacing:0px;fill:#000000;fill-opacity:1;stroke:none;stroke-width:1px;stroke-linecap:butt;stroke-linejoin:miter;stroke-opacity:1"
         id="text5384-7">
        <path
           d="m 642.69977,585.73553 -12.3291,0 q 0,-3.44848 -0.0916,-4.33349 -0.061,-0.91553 -0.73242,-1.52588 -0.64087,-0.61035 -1.77002,-0.61035 -0.94604,0 -1.55639,0.57983 -0.61036,0.57984 -0.70191,1.49536 -0.0915,0.91553 -0.0915,3.69263 l 0,7.87354 q 0.94604,-1.98365 2.7771,-2.96021 1.83105,-1.00708 4.5166,-1.00708 3.38745,0 5.98145,1.83106 2.59399,1.83105 3.29589,4.39453 0.70191,2.56347 0.70191,6.92749 l 0,3.93676 q 0,5.18799 -0.39673,7.72095 -0.39673,2.53296 -2.13623,4.69971 -1.70899,2.13623 -4.73023,3.32641 -2.99072,1.19019 -6.98852,1.19019 -4.97437,0 -8.14819,-1.37329 -3.17383,-1.37329 -4.91333,-3.93677 -1.70899,-2.59399 -2.01416,-5.43213 -0.27466,-2.83813 -0.27466,-11.01684 l 0,-6.83594 q 0,-8.81958 0.24414,-11.77979 0.27466,-2.99072 2.13623,-5.64575 1.86157,-2.65503 5.06592,-3.96728 3.23486,-1.34278 7.44629,-1.34278 5.18798,0 8.5144,1.67847 3.32642,1.67847 4.76074,4.73022 1.43433,3.05176 1.43433,7.69043 z m -12.3291,15.41138 q 0,-2.62451 -0.57984,-3.60107 -0.57983,-0.97657 -1.89209,-0.97657 -1.28174,0 -1.89209,0.94605 -0.57983,0.91553 -0.57983,3.63159 l 0,8.94165 q 0,3.26538 0.54932,4.27246 0.57983,1.00708 1.89209,1.00708 0.79345,0 1.64794,-0.76294 0.8545,-0.79345 0.8545,-4.21142 l 0,-9.24683 z"
           style="font-style:normal;font-variant:normal;font-weight:normal;font-stretch:condensed;font-family:Impact;-inkscape-font-specification:'Impact Condensed';fill:#ffffff"
           id="path5534" />
      </g>
      <g
         style="font-style:normal;font-weight:normal;font-size:62.5px;line-height:125%;font-family:sans-serif;letter-spacing:0px;word-spacing:0px;fill:#000000;fill-opacity:1;stroke:none;stroke-width:1px;stroke-linecap:butt;stroke-linejoin:miter;stroke-opacity:1"
         id="text5384-6">
        <path
           d="m 487.68149,570.66003 0,7.90406 -15.28931,0 0,8.39233 q 2.86865,-3.38745 7.38526,-3.38745 5.09643,0 7.69042,2.86865 2.62452,2.83814 2.62452,10.95581 l 0,7.04956 q 0,5.24903 -0.5188,7.72095 -0.48828,2.44141 -2.13623,4.54712 -1.64795,2.07519 -4.60816,3.20435 -2.92968,1.09863 -7.17163,1.09863 -4.76074,0 -8.39233,-1.64795 -3.63159,-1.67847 -5.15747,-4.97437 -1.52588,-3.29589 -1.52588,-10.19287 l 0,-2.68554 12.3291,0 0,3.08227 q 0,4.79126 0.33569,6.80542 0.3357,2.01416 2.31934,2.01416 0.91553,0 1.46484,-0.57983 0.57984,-0.57984 0.61035,-1.25122 0.061,-0.67139 0.12208,-5.82886 l 0,-9.79614 q 0,-2.7771 -0.57984,-3.78418 -0.57983,-1.00708 -1.92261,-1.00708 -0.85449,0 -1.43432,0.5188 -0.57984,0.51879 -0.76294,1.12915 -0.15259,0.57983 -0.15259,2.74658 l -12.20703,0 0.5188,-24.90235 26.45874,0 z"
           style="font-style:normal;font-variant:normal;font-weight:normal;font-stretch:condensed;font-family:Impact;-inkscape-font-specification:'Impact Condensed';fill:#ffffff"
           id="path5537" />
      </g>
      <g
         style="font-style:normal;font-weight:normal;font-size:62.5px;line-height:125%;font-family:sans-serif;letter-spacing:0px;word-spacing:0px;fill:#000000;fill-opacity:1;stroke:none;stroke-width:1px;stroke-linecap:butt;stroke-linejoin:miter;stroke-opacity:1"
         id="text5384-63">
        <path
           d="m 570.37775,461.29294 0,10.7727 -7.87354,38.63526 -12.26806,0 8.75854,-40.52735 -12.17651,0 0,-8.88061 23.55957,0 z"
           style="font-style:normal;font-variant:normal;font-weight:normal;font-stretch:condensed;font-family:Impact;-inkscape-font-specification:'Impact Condensed';fill:#ffffff"
           id="path5540" />
      </g>
      <g
         style="font-style:normal;font-weight:normal;font-size:62.5px;line-height:125%;font-family:sans-serif;letter-spacing:0px;word-spacing:0px;fill:#000000;fill-opacity:1;stroke:none;stroke-width:1px;stroke-linecap:butt;stroke-linejoin:miter;stroke-opacity:1"
         id="text5384-9">
        <path
           d="m 618.95667,386.25827 12.3291,0 q 0,3.44849 0.0916,4.36401 0.0915,0.88501 0.73242,1.49537 0.67139,0.61035 1.80054,0.61035 0.94604,0 1.55639,-0.57984 0.61036,-0.57983 0.67139,-1.49536 0.0915,-0.91553 0.0915,-3.69263 l 0,-7.87353 q -0.91552,1.98364 -2.74658,2.99072 -1.83105,0.97656 -4.54712,0.97656 -3.38745,0 -5.98144,-1.83105 -2.594,-1.83105 -3.2959,-4.39453 -0.7019,-2.56348 -0.7019,-6.92749 l 0,-3.93677 q 0,-5.18799 0.39672,-7.72095 0.42725,-2.53296 2.13623,-4.66919 1.70899,-2.16674 4.73023,-3.35693 3.02124,-1.19019 7.01904,-1.19019 4.94385,0 8.11768,1.3733 3.17383,1.37329 4.91333,3.96728 1.7395,2.56348 2.01416,5.40161 0.27466,2.83814 0.27466,10.98633 l 0,6.86646 q 0,8.81958 -0.24414,11.8103 -0.24415,2.9602 -2.13624,5.61523 -1.86157,2.65503 -5.06591,3.99781 -3.20435,1.31225 -7.41577,1.31225 -5.21851,0 -8.54493,-1.67847 -3.2959,-1.67846 -4.76074,-4.73022 -1.43432,-3.05176 -1.43432,-7.69043 z m 12.3291,-15.41138 q 0,3.1128 0.79345,3.84522 0.82398,0.73242 1.67847,0.73242 1.28174,0 1.86157,-0.91553 0.61035,-0.94604 0.61035,-3.66211 l 0,-8.94165 q 0,-3.26538 -0.57983,-4.27246 -0.54932,-1.00708 -1.86157,-1.00708 -0.79346,0 -1.64795,0.79346 -0.85449,0.76294 -0.85449,4.18091 l 0,9.24682 z"
           style="font-style:normal;font-variant:normal;font-weight:normal;font-stretch:condensed;font-family:Impact;-inkscape-font-specification:'Impact Condensed';fill:#ffffff"
           id="path5543" />
      </g>
      <g
         style="font-style:normal;font-weight:normal;font-size:62.5px;line-height:125%;font-family:sans-serif;letter-spacing:0px;word-spacing:0px;fill:#000000;fill-opacity:1;stroke:none;stroke-width:1px;stroke-linecap:butt;stroke-linejoin:miter;stroke-opacity:1"
         id="text5384-91">
        <path
           d="m 575.74872,681.98004 0,32.2876 3.50952,0 0,8.42285 -3.50952,0 0,8.69751 -12.3291,0 0,-8.69751 -14.64844,0 0,-8.42285 10.65063,-32.2876 16.32691,0 z m -12.3291,32.2876 0,-21.02661 -5.43213,21.02661 5.43213,0 z"
           style="font-style:normal;font-variant:normal;font-weight:normal;font-stretch:condensed;font-family:Impact;-inkscape-font-specification:'Impact Condensed';fill:#ffffff"
           id="path5546" />
      </g>
      <g
         style="font-style:normal;font-weight:normal;font-size:62.5px;line-height:125%;font-family:sans-serif;letter-spacing:0px;word-spacing:0px;fill:#000000;fill-opacity:1;stroke:none;stroke-width:1px;stroke-linecap:butt;stroke-linejoin:miter;stroke-opacity:1"
         id="text5384-60">
        <path
           d="m 634.30756,820.58246 q 2.80761,0.94604 4.1809,3.11279 1.3733,2.13623 1.3733,10.0708 0,5.88989 -1.34278,9.15528 -1.34277,3.23486 -4.63867,4.94384 -3.2959,1.67847 -8.45337,1.67847 -5.85937,0 -9.21631,-1.95312 -3.32641,-1.98365 -4.39453,-4.82178 -1.0376,-2.86865 -1.0376,-9.91822 l 0,-3.90625 12.3291,0 0,8.02613 q 0,3.20434 0.36622,4.08935 0.39672,0.8545 1.70898,0.8545 1.43433,0 1.89209,-1.09864 0.45776,-1.09863 0.45776,-5.7373 l 0,-3.41797 q 0,-2.83814 -0.64087,-4.15039 -0.64086,-1.31226 -1.89209,-1.70899 -1.25122,-0.42724 -4.85229,-0.48828 l 0,-7.17163 q 4.39453,0 5.43213,-0.33569 1.0376,-0.33569 1.49536,-1.46484 0.45776,-1.12916 0.45776,-3.54004 l 0,-2.74659 q 0,-2.59399 -0.54931,-3.41796 -0.5188,-0.82398 -1.64795,-0.82398 -1.28174,0 -1.77002,0.88501 -0.45777,0.85449 -0.45777,3.69263 l 0,4.05884 -12.3291,0 0,-4.21143 q 0,-7.08008 3.23487,-9.552 3.23486,-2.50244 10.28442,-2.50244 8.81958,0 11.96289,3.44848 3.14331,3.44849 3.14331,9.58252 0,4.15039 -1.12915,6.01196 -1.12915,1.83106 -3.96728,3.35694 z"
           style="font-style:normal;font-variant:normal;font-weight:normal;font-stretch:condensed;font-family:Impact;-inkscape-font-specification:'Impact Condensed';fill:#ffffff"
           id="path5549" />
      </g>
      <g
         style="font-style:normal;font-weight:normal;font-size:62.5px;line-height:125%;font-family:sans-serif;letter-spacing:0px;word-spacing:0px;fill:#000000;fill-opacity:1;stroke:none;stroke-width:1px;stroke-linecap:butt;stroke-linejoin:miter;stroke-opacity:1"
         id="text5384-5">
        <path
           d="m 573.52063,902.66724 0,49.40796 -12.3291,0 0,-26.48926 q 0,-5.73731 -0.27466,-6.89698 -0.27466,-1.15966 -1.52588,-1.7395 -1.2207,-0.61035 -5.49316,-0.61035 l -1.22071,0 0,-5.76782 q 8.94165,-1.92261 13.58033,-7.90405 l 7.26318,0 z"
           style="font-style:normal;font-variant:normal;font-weight:normal;font-stretch:condensed;font-family:Impact;-inkscape-font-specification:'Impact Condensed';fill:#ffffff"
           id="path5552" />
      </g>
    </g>
    <path
       style="fill:none;fill-rule:evenodd;stroke:#000000;stroke-width:1px;stroke-linecap:butt;stroke-linejoin:miter;stroke-opacity:1"
       d="M 980.39783,702.7781 1785.0271,388.34773 2035.009,765.27358 1160.0723,1107.0457 Z"
       id="path5554"
       inkscape:connector-curvature="0" />
    <path
       style="opacity:1;fill:#008000;fill-opacity:1;stroke:#000000;stroke-width:7;stroke-miterlimit:4;stroke-dasharray:none;stroke-opacity:1"
       d="m -195.29837,228.20306 189.4394222,0 0,154.28572 -189.4394222,0 z"
       id="rect5556" />
  </g>
</svg>
